<?xml version="1.0" standalone="no"?>
<!DOCTYPE svg PUBLIC "-//W3C//DTD SVG 1.1//EN" "http://www.w3.org/Graphics/SVG/1.1/DTD/svg11.dtd" >
<svg xmlns="http://www.w3.org/2000/svg">
<metadata>
Created by FontForge 20120731 at Fri Feb  3 20:12:05 2017
 By admin
</metadata>
<defs>
<font id="iconfont" horiz-adv-x="1024" >
  <font-face 
    font-family="iconfont"
    font-weight="500"
    font-stretch="normal"
    units-per-em="1024"
    panose-1="2 0 6 3 0 0 0 0 0 0"
    ascent="896"
    descent="-128"
    x-height="792"
    bbox="0 -212 1391 896"
    underline-thickness="0"
    underline-position="0"
    unicode-range="U+0078-E9DA"
  />
<missing-glyph 
 />
    <glyph glyph-name=".notdef" 
 />
    <glyph glyph-name=".notdef" 
 />
    <glyph glyph-name=".null" horiz-adv-x="0" 
 />
    <glyph glyph-name="nonmarkingreturn" horiz-adv-x="341" 
 />
    <glyph glyph-name="x" unicode="x" horiz-adv-x="1001" 
d="M281 543q-27 -1 -53 -1h-83q-18 0 -36.5 -6t-32.5 -18.5t-23 -32t-9 -45.5v-76h912v41q0 16 -0.5 30t-0.5 18q0 13 -5 29t-17 29.5t-31.5 22.5t-49.5 9h-133v-97h-438v97zM955 310v-52q0 -23 0.5 -52t0.5 -58t-10.5 -47.5t-26 -30t-33 -16t-31.5 -4.5q-14 -1 -29.5 -0.5
t-29.5 0.5h-32l-45 128h-439l-44 -128h-29h-34q-20 0 -45 1q-25 0 -41 9.5t-25.5 23t-13.5 29.5t-4 30v167h911zM163 247q-12 0 -21 -8.5t-9 -21.5t9 -21.5t21 -8.5q13 0 22 8.5t9 21.5t-9 21.5t-22 8.5zM316 123q-8 -26 -14 -48q-5 -19 -10.5 -37t-7.5 -25t-3 -15t1 -14.5
t9.5 -10.5t21.5 -4h37h67h81h80h64h36q23 0 34 12t2 38q-5 13 -9.5 30.5t-9.5 34.5q-5 19 -11 39h-368zM336 498v228q0 11 2.5 23t10 21.5t20.5 15.5t34 6h188q31 0 51.5 -14.5t20.5 -52.5v-227h-327z" />
    <glyph glyph-name="zhuji" unicode="&#xe600;" horiz-adv-x="1000" 
d="M767 816h-504q-25 0 -42.5 -17.5t-17.5 -42.5v-879q0 -25 17.5 -42.5t42.5 -17.5h504q25 0 42.5 17.5t17.5 42.5v879q0 25 -17.5 42.5t-42.5 17.5zM265 691h500v-125h-500v125zM452 -121h-125v63h125v-63zM702 -121h-125v63h125v-63zM515 39q-37 0 -63.5 26.5t-26.5 63.5
t26.5 63.5t63.5 26.5t63.5 -26.5t26.5 -63.5t-26.5 -63.5t-63.5 -26.5zM765 379h-500v125h500v-125z" />
    <glyph glyph-name="diannao" unicode="&#xe601;" horiz-adv-x="1000" 
d="M1000 -12v750h-1000v-750h375v-63h-187v-63h624v63h-187v63h375zM125 112v500h750v-500h-750z" />
    <glyph glyph-name="luxiang" unicode="&#xe625;" horiz-adv-x="1000" 
d="M750 395v-190l250 -128v446zM625 523h-563q-25 0 -43.5 -16.5t-18.5 -39.5v-334q0 -23 18.5 -39.5t43.5 -16.5h563q26 0 44.5 16.5t18.5 39.5v56v47v128v47v56q0 23 -18.5 39.5t-44.5 16.5z" />
    <glyph glyph-name="power" unicode="&#xe602;" 
d="M351 749h-162v-54h-125v-789q0 -22 16 -38t38 -16h359v790q0 22 -16 37.5t-38 15.5h-72v54zM423 642v-736h-305v736h305zM154 -58h233v573h-233v-573zM865 282v110q0 12 -8.5 20.5t-20.5 8.5t-20.5 -8.5t-8.5 -20.5v-110h-105v110q0 12 -8.5 20.5t-20.5 8.5t-20.5 -8.5
t-8.5 -20.5v-110h-64v-134q0 -55 43 -94t103 -39v-12q-1 -33 -24.5 -57t-57.5 -24h-168v-70h168q63 0 107 44.5t44 106.5v12q56 4 95 42.5t39 90.5v133h-64v1z" />
    <glyph glyph-name="group" unicode="&#xe715;" 
d="M875 172v171h-342v128h107v298h-256v-298h107v-128h-299h-43v-171h-106v-299h256v299h-107v128h299v-128h-107v-299h256v299h-107v128h299v-128h-107v-299h256v299h-106zM427 513v214h170v-214h-170zM256 129v-213h-171v213h171zM597 129v-213h-170v213h170zM939 -84
h-171v213h171v-213z" />
    <glyph glyph-name="group1" unicode="&#xe639;" 
d="M970 267q-53 52 -122 69q-2 1 -4 1h-4q-2 0 -4 -1q-21 -12 -51 -12t-52 12q-2 1 -4 1h-3h-1q-30 -7 -59 -22q-15 -52 -52 -89h350q8 0 8 8v28q0 3 -2 5zM696 462q0 -7 4.5 -11.5t10.5 -4.5v0q2 -31 23.5 -56t50 -25t50 25t24.5 56v0q6 0 10 4.5t4 11.5q0 10 -8 14
q4 14 4 29q0 37 -24.5 63t-59.5 26t-60 -26t-25 -63q0 -15 5 -29q-9 -4 -9 -14zM353 318q-25 12 -50 18q-2 1 -4 1h-4q-2 0 -4 -1q-22 -12 -51.5 -12t-51.5 12q-2 1 -4 1h-3h-1q-71 -17 -126 -70q-2 -2 -2 -5v-28q0 -8 8 -8h346q-38 38 -53 92zM151 462q0 -7 4 -11.5
t10 -4.5h1q2 -31 23.5 -56t50 -25t50 25t23.5 56h1q6 0 10 4.5t4 11.5q0 10 -8 14q4 14 4 29q0 37 -24.5 63t-59.5 26t-60 -26t-25 -63q0 -15 5 -29q-9 -4 -9 -14zM359 382q0 -10 7 -18t17 -8h1q3 -39 24 -74q8 -13 19 -24q37 -40 83 -40q49 0 87 44q5 6 8 11q28 38 31 83h1
q10 0 17 8t7 18q0 17 -14 24q7 24 7 50q0 63 -42 108t-102 45t-102 -45t-42 -108q0 -25 7 -50q-14 -7 -14 -24zM618 175q-3 1 -7 1h-7q-3 0 -6 -1q-37 -20 -88 -20t-88 20q-3 1 -6 1h-6h-3q-121 -29 -213 -118q-4 -4 -4 -10v-48q0 -6 4 -9.5t9 -3.5h614q5 0 9 3.5t4 9.5v48
q0 6 -4 10q-90 87 -208 117z" />
    <glyph glyph-name="fengshan" unicode="&#xe603;" 
d="M79 611h26v31h-11v28q0 8 9 8h172q9 0 9 -8v-28h-11v-31h672q14 0 24.5 -10t10.5 -24v-578q0 -14 -10.5 -24t-24.5 -10h-866q-14 0 -25 10t-11 24v578q0 14 11 24t25 10v0zM509 319q-13 -1 -21.5 -11t-7.5 -22.5t11.5 -21t23.5 -7.5t21.5 11t7.5 22.5t-11.5 21t-23.5 7.5
v0zM517 355q-6 1 -11 0q-16 -1 -30 -9q-18 3 -31 23q-13 21 16 36q12 7 20 14q19 17 17 40t-25 36q-20 13 -49.5 17t-61 -3t-52.5 -27q-30 -28 -34.5 -64.5t17.5 -66.5t64 -39q5 -1 24.5 -3.5t35 -6t24.5 -9.5v-11q2 -15 10 -28q-3 -18 -24 -30q-22 -12 -38 15q-7 12 -14 20
q-18 18 -42.5 15.5t-38.5 -23.5q-13 -20 -17.5 -47.5t3 -57.5t28.5 -50q29 -29 67.5 -33.5t70 16.5t41.5 61q1 5 3.5 23.5t6 33.5t10.5 24q6 -1 11 0q16 1 30 9q18 -3 31 -23q13 -21 -16 -36q-12 -7 -20 -14q-19 -17 -17 -40t25 -37q20 -12 49.5 -16.5t61 3t52.5 27.5
q30 28 34.5 64.5t-17.5 66.5t-64 39q-5 1 -24.5 3.5t-35 6t-24.5 9.5v11q-2 15 -10 28q3 18 24 30q22 12 38 -15q7 -12 14 -20q18 -18 42.5 -15.5t38.5 23.5q13 20 17.5 47.5t-3 57.5t-28.5 50q-29 28 -67.5 33t-70 -16t-41.5 -61q-1 -5 -3.5 -23.5t-6 -33.5t-10.5 -24z" />
    <glyph glyph-name="sign" unicode="&#xe62a;" 
d="M730 130q-115 36 -140 44q-13 6 -11 45t11 47q7 6 19.5 42t16.5 52q2 10 16 14t16 9q5 10 4 44t-5 42q-3 4 -8 4t-9 -2l-3 -2q9 19 12 45q4 25 -14 77.5t-46 65.5q-46 20 -94 20h-13q-38 -1 -81 -20q-27 -13 -45.5 -65.5t-14.5 -77.5q1 -12 4.5 -23t5.5 -17l2 -5
q-14 10 -20 0q-4 -8 -5 -42t4 -44q2 -5 16 -9t16 -14q4 -16 16.5 -52t19.5 -42q9 -8 11 -47t-11 -45q-12 -4 -137 -44l6 -5q97 -87 228 -87q130 0 228 86zM496.5 -10q-76.5 0 -146.5 29q-68 29 -120 81t-80 120q-30 69 -30 146t30 146q28 68 80 120t120 81q70 29 146.5 29
t146.5 -29q67 -29 119.5 -81t80.5 -120q30 -69 30 -146t-30 -146q-28 -68 -80.5 -120t-119.5 -81q-70 -29 -146.5 -29zM496.5 710q-93.5 0 -172.5 -46.5t-125 -125.5t-46 -172t46 -172t125 -125t172.5 -46t172.5 46t125 125t46 172t-46 172t-125 125.5t-172.5 46.5z" />
    <glyph glyph-name="fujian" unicode="&#xe604;" 
d="M908 647q45 -45 43 -110q-2 -64 -49 -111l-125 -125q-46 -46 -111 -49h-5q-62 0 -105 43l39 39q29 -28 70 -26q42 1 73 32l125 125q31 31 33 74q1 41 -27 69l-58 59q-29 28 -70 26q-42 -1 -73 -32l-125 -125q-31 -31 -33 -74q-1 -21 2.5 -30.5t15.5 -22.5l-39 -39
q-22 22 -28.5 42t-5.5 52q2 64 49 111l125 125q46 47 110 49q66 1 111 -43zM667 425l-277 -276l-39 39l276 276zM520 249q44 -44 42.5 -109t-48.5 -111l-125 -126q-49 -48 -116 -48q-62 0 -105 42l-59 59q-45 45 -43 110t49 111l125 125q48 48 99 57q61 12 106 -33l-39 -39
q-24 24 -57 18q-34 -7 -70 -42l-125 -125q-31 -31 -32 -73q-2 -42 26 -70l59 -58q28 -29 70 -27t73 32l125 126q31 30 32.5 72t-26.5 70z" />
    <glyph glyph-name="icomoon" unicode="&#xe605;" 
d="M646 508.5q0 53.5 54 53.5q53 0 53 -53.5t-53 -53.5q-54 0 -54 53.5zM575 509q0 -126 125 -126t125 126q0 124 -125 124t-125 -124zM870 369q0 -32 -32 -32h-276q-32 0 -32 32v279q0 32 32 32h276q32 0 32 -32v-279zM767.5 287q45.5 0 45.5 -45.5t-45.5 -45.5t-45.5 45.5
t45.5 45.5zM632 287q46 0 46 -45.5t-46 -45.5t-46 45.5t46 45.5zM839 58q0 -17 -18 -17h-461q-18 0 -18 17v66q0 18 18 18h461q18 0 18 -18v-66zM309 667q0 18 18 18h66q17 0 17 -18v-390q0 -18 -17 -18h-66q-18 0 -18 18v390zM222 277q0 -18 -17 -18h-66q-18 0 -18 18v390
q0 18 18 18h66q17 0 17 -18v-390zM126 91.5q0 45.5 45.5 45.5t45.5 -45.5t-45.5 -45.5t-45.5 45.5zM974 471q19 0 19 18v73q0 17 -19 17h-27v124q0 90 -89 90h-737q-90 0 -90 -90v-678q0 -90 90 -90h737q89 0 89 90v16h27q19 0 19 17v145q0 18 -19 18h-27v89h27q19 0 19 17
v74q0 17 -19 17h-27v53h27z" />
    <glyph glyph-name="guangqu" unicode="&#xe626;" 
d="M956 253q26 -45 14 -98l-35 -189q-2 -20 -19.5 -35.5t-39.5 -15.5h-729q-21 0 -39.5 15.5t-20.5 35.5l-35 189q-8 53 15 98l161 383q23 47 74 47h418q51 0 76 -47zM886 118q2 22 -10.5 38.5t-34.5 16.5h-660q-22 0 -34.5 -16.5t-10.5 -38.5l15 -76q2 -23 19.5 -38
t39.5 -15h604q23 0 40.5 15t19.5 38zM817 89q-1 -15 -13 -17h-584q-9 1 -12 16l-3 26q0 7 3.5 12t8.5 5h590q5 0 8.5 -5t3.5 -12zM799 22q-3 -9 -13 -9h-34q-10 0 -14 10l-1 6q-1 4 2 7q4 4 10 4h39q4 0 7 -1q6 -3 5 -11z" />
    <glyph glyph-name="xianqia" unicode="&#xe606;" 
d="M197 432q-18 0 -18 -18v-30q0 -18 18 -18h219q18 0 18 18v30q0 18 -18 18h-219zM197 523q-18 0 -18 -18v-30q0 -18 18 -18h219q18 0 18 18v30q0 18 -18 18h-219zM197 341q-18 0 -18 -18v-30q0 -18 18 -18h219q18 0 18 18v30q0 18 -18 18h-219zM134 228q-18 0 -18 19v311
q0 19 18 19h533q174 0 174 -174.5t-174 -174.5h-533zM899 762v-70h-783q-91 0 -91 -91v-382q0 -91 91 -91v-45q0 -18 18 -18h141q18 0 18 18v45h65v-45q0 -18 19 -18h344q18 0 18 18v45h160v-164q0 -50 50 -50t50 50v798q0 50 -50 50t-50 -50zM612 403q0 54 55 54
q54 0 54 -54q0 -55 -54 -55q-55 0 -55 55zM546 402.5q0 -120.5 120.5 -120.5t120.5 120.5t-120.5 120.5t-120.5 -120.5z" />
    <glyph glyph-name="wangqia" unicode="&#xe607;" 
d="M700 185q-62 -58 -84 -145q-8 -32 24 -40q17 -4 30 8q7 6 10 16q17 68 66 114q48 45 117 58q33 5 27 38q-6 32 -38 26q-89 -16 -152 -75v0zM772 109q-44 -41 -60 -102q-7 -32 24 -40q17 -4 30 8q8 6 10 16q10 42 41 71q30 28 73 35q32 6 26 39q-6 31 -38 26
q-62 -11 -106 -53v0zM844.5 -73.5q49.5 -52.5 101.5 -3.5t3 102q-49 52 -101.5 3t-3 -101.5zM565 646h267v-179h-267v179v0zM432 67h-307v214h307v-214zM788 321q16 0 16 15v19q0 16 -16 16h-33v41h127q15 0 15 16v257q0 15 -15 15h-365q-16 0 -16 -15v-149h-333v-192h-99
q-18 0 -18 -17v-305q0 -18 18 -18h145v-46h-38q-18 0 -18 -17v-22q0 -18 18 -18h205q18 0 18 18v22q0 17 -18 17h-38v46h145q18 0 18 18v305q0 17 -18 17h-270v143h283v-59q0 -16 15 -16h127v-41h-34q-15 0 -15 -16v-19q0 -15 15 -15h179v0z" />
    <glyph glyph-name="yinxiang" unicode="&#xe608;" 
d="M811 -172h-594q-31 0 -53.5 22t-22.5 54v789q0 31 22.5 53.5t53.5 22.5h594q32 0 54 -22.5t22 -53.5v-789q0 -32 -22 -54t-54 -22zM217 711q-7 0 -12.5 -5.5t-5.5 -12.5v-789q0 -8 5.5 -13t12.5 -5h594q8 0 13 5t5 13v789q0 7 -5 12.5t-13 5.5h-594zM514 175
q-93 0 -158.5 66t-65.5 159t65.5 158.5t158.5 65.5t159 -65.5t66 -158.5t-66 -159t-159 -66zM514 566q-69 0 -117.5 -48.5t-48.5 -117.5t48.5 -118t117.5 -49t118 49t49 118t-49 117.5t-118 48.5zM514 -71q-45 0 -76.5 32t-31.5 77t31.5 76.5t76.5 31.5t77 -31.5t32 -76.5
t-32 -77t-77 -32zM514 88q-21 0 -36 -14.5t-15 -35.5t15 -36t36 -15t36 15t15 36t-15 35.5t-36 14.5zM514 291q-45 0 -76.5 32t-31.5 77t31.5 76.5t76.5 31.5t77 -31.5t32 -76.5t-32 -77t-77 -32zM514 450q-21 0 -36 -14.5t-15 -35.5t15 -36t36 -15t36 15t15 36t-15 35.5
t-36 14.5zM282 581q-21 0 -35.5 14.5t-14.5 35.5t14.5 36t35.5 15t36 -15t15 -36t-15 -35.5t-36 -14.5zM282.5 639q-7.5 0 -7.5 -7.5t7.5 -7.5t7.5 7.5t-7.5 7.5zM746 581q-21 0 -36 14.5t-15 35.5t15 36t36 15t36 -15t15 -36t-15 -35.5t-36 -14.5zM746 639q-7 0 -7 -7.5
t7 -7.5t7 7.5t-7 7.5z" />
    <glyph glyph-name="sale" unicode="&#xe658;" 
d="M883 319l-358 295v0h-7h-6v6h-6h-7h-6v0l-352 -301q-19 -19 -7 -32l64 -102q13 -13 20 -13q12 0 19 6l19 13l51 -256q10 -19 26 -19h179h179q16 0 26 19l51 256l26 -13q6 -6 19 -6q5 0 9 4t4 9l64 102q12 13 -7 32zM794 230l-32 19q-10 9 -20 0q-12 0 -12 -19l-58 -269
h-160h-160l-58 275q0 6 -12 19h-20l-32 -25l-38 64l320 268l326 -268zM506 409v-32q-20 0 -32 -7q-6 0 -10.5 -1t-12 -5.5t-9.5 -5.5q-13 -13 -13 -20q-2 -3 -5 -8t-4.5 -8t-2.5 -7t-1 -9q0 -25 6 -32q9 -17 26 -25q13 -13 26 -19q6 -4 15.5 -7t16.5 -6v-90q-26 0 -39 13
q-5 5 -9 17t-4 21h-38q0 -25 6.5 -38t19.5 -26q2 0 5.5 -1.5t9 -5t10.5 -5.5q13 -7 39 -7v-32h19v32q25 0 38 7q3 3 9.5 6t9.5 6q13 13 19.5 26t6.5 38.5t-6 31.5q-7 13 -20 26l-25 19q-7 0 -19.5 3.5t-19.5 3.5v83q20 0 32 -13q4 -4 7.5 -15.5t5.5 -16.5h45q0 26 -6 32
q-7 13 -20 26q-6 3 -15.5 9.5t-16.5 9.5q-6 0 -15.5 3t-16.5 3v26h-12zM506 268q-13 0 -13 6q-3 0 -6 2t-5 3l-2 2q-3 0 -4.5 1.5t-3.5 5t-5 6.5q0 3 -3 6t-3 6q0 10 4 18t9 8q6 6 32 6v-70zM538 210q2 0 5.5 -1.5t5.5 -2.5l1 -2v0l2 -1l1 -2l1 -1l1 -1l1 -1h1v-1l1 -1l1 -1
h1l1 -1l1 -1l1 -2v0q0 -3 3.5 -9.5t3.5 -9.5q0 -19 -13 -32t-32 -13v90q6 0 13 -7z" />
    <glyph glyph-name="xianshiqi" unicode="&#xe609;" 
d="M676 -20q0 -12 -7 -21.5t-19 -9.5l-250 1q-11 -1 -18 9.5t-7 20.5q0 8 6.5 18.5t18.5 10.5h78v66h-349q-35 0 -56.5 19.5t-21.5 52.5v521q0 34 20.5 50.5t54.5 16.5h773q34 0 54 -18.5t20 -48.5v-521q0 -32 -18.5 -50.5t-55.5 -18.5h-326v-70h76q11 0 19 -9t8 -19v0z
M900 620h-786v-368h786v368zM568 208h-89v-80h89v80z" />
    <glyph glyph-name="brand" unicode="&#xe713;" 
d="M512 832q-185 0 -316.5 -131.5t-131.5 -316.5t131.5 -316.5t316.5 -131.5t316.5 131.5t131.5 316.5t-131.5 316.5t-316.5 131.5zM512 0q-159 0 -271.5 112.5t-112.5 271.5t112.5 271.5t271.5 112.5t271.5 -112.5t112.5 -271.5t-112.5 -271.5t-271.5 -112.5zM736 480
q0 66 -47 113t-113 47h-256q-13 0 -22.5 -9.5t-9.5 -22.5t9.5 -22.5t22.5 -9.5h256q40 0 68 -28t28 -68t-28 -68t-68 -28h-160v96q0 13 -9.5 22.5t-22.5 9.5t-22.5 -9.5t-9.5 -22.5v-288h-32q-13 0 -22.5 -9.5t-9.5 -22.5t9.5 -22.5t22.5 -9.5h128q13 0 22.5 9.5t9.5 22.5
t-9.5 22.5t-22.5 9.5h-32v128h79l118 -178q1 0 4 -3q0 -1 0.5 -1.5l0.5 -0.5q4 -4 9 -6l2 -1q6 -2 11 -2v0h64q13 0 22.5 9.5t9.5 22.5t-9.5 22.5t-22.5 9.5h-47l-85 128h4q66 0 113 47t47 113z" />
    <glyph glyph-name="more" unicode="&#xe660;" horiz-adv-x="1518" 
d="M257 -212l496 512l-496 512h420l496 -512l-496 -512h-420z" />
    <glyph glyph-name="ruanjian" unicode="&#xe60a;" 
d="M871 564v-166q0 -40 -28.5 -68.5t-68.5 -28.5h-166q-40 0 -68.5 28.5t-28.5 68.5v166q0 40 28.5 68.5t68.5 28.5h166q40 0 68.5 -28.5t28.5 -68.5zM583 14q0 -20 14 -34.5t35 -14.5h166q20 0 34.5 14.5t14.5 34.5v166q0 21 -14.5 35t-34.5 14h-166q-21 0 -35 -14t-14 -35
v-166zM895 180v-166q0 -40 -28.5 -68.5t-68.5 -28.5h-166q-40 0 -68.5 28.5t-28.5 68.5v166q0 40 28.5 68.5t68.5 28.5h166q40 0 68.5 -28.5t28.5 -68.5zM511 204v-166q0 -40 -28.5 -68.5t-68.5 -28.5h-166q-40 0 -68.5 28.5t-28.5 68.5v166q0 40 28.5 68.5t68.5 28.5h166
q40 0 68.5 -28.5t28.5 -68.5zM175 422q0 -20 14.5 -34.5t34.5 -14.5h166q20 0 34.5 14.5t14.5 34.5v166q0 20 -14.5 34.5t-34.5 14.5h-166q-20 0 -34.5 -14.5t-14.5 -34.5v-166zM487 588v-166q0 -40 -28.5 -68.5t-68.5 -28.5h-166q-40 0 -68.5 28.5t-28.5 68.5v166
q0 40 28.5 68.5t68.5 28.5h166q40 0 68.5 -28.5t28.5 -68.5z" />
    <glyph glyph-name="order" unicode="&#xe62b;" 
d="M804 739q31 0 52.5 -21.5t21.5 -51.5v-731q0 -30 -21.5 -51.5t-52.5 -21.5h-584q-31 0 -52.5 21.5t-21.5 51.5v731q0 30 21.5 51.5t52.5 21.5h584zM804 812h-584q-61 0 -104 -43t-43 -103v-731q0 -61 43 -103.5t104 -42.5h584q61 0 104 42.5t43 103.5v731q0 60 -43 103
t-104 43v0zM768 300h-512q-15 0 -25.5 -10.5t-10.5 -25.5t10.5 -26t25.5 -11h512q15 0 25.5 11t10.5 26t-10.5 25.5t-25.5 10.5v0zM768 81h-512q-15 0 -25.5 -10.5t-10.5 -26t10.5 -26t25.5 -10.5h512q15 0 25.5 10.5t10.5 26t-10.5 26t-25.5 10.5v0zM585 520h-329
q-15 0 -25.5 -11t-10.5 -26t10.5 -26t25.5 -11h329q15 0 26 11t11 26t-11 26t-26 11v0z" />
    <glyph glyph-name="yinxiang1" unicode="&#xe60b;" 
d="M811 769h-594q-31 0 -53.5 -22.5t-22.5 -53.5v-789q0 -32 22.5 -54t53.5 -22h594q32 0 54 22t22 54v789q0 31 -22 53.5t-54 22.5zM232 631q0 21 14.5 36t35.5 15t36 -15t15 -36t-15 -35.5t-36 -14.5t-35.5 14.5t-14.5 35.5zM514 -71q-45 0 -76.5 32t-31.5 77t31.5 76.5
t76.5 31.5t77 -31.5t32 -76.5t-32 -77t-77 -32zM514 175q-93 0 -158.5 66t-65.5 159t65.5 158.5t158.5 65.5t159 -65.5t66 -158.5t-66 -159t-159 -66zM746 581q-21 0 -36 14.5t-15 35.5t15 36t36 15t36 -15t15 -36t-15 -35.5t-36 -14.5zM514 566q-69 0 -117.5 -48.5
t-48.5 -117.5t48.5 -118t117.5 -49t118 49t49 118t-49 117.5t-118 48.5zM514 291q-45 0 -76.5 32t-31.5 77t31.5 76.5t76.5 31.5t77 -31.5t32 -76.5t-32 -77t-77 -32zM514 88q-21 0 -36 -14.5t-15 -35.5t15 -36t36 -15t36 15t15 36t-15 35.5t-36 14.5zM514 450
q-21 0 -36 -14.5t-15 -35.5t15 -36t36 -15t36 15t15 36t-15 35.5t-36 14.5zM282.5 639q-7.5 0 -7.5 -7.5t7.5 -7.5t7.5 7.5t-7.5 7.5zM746 639q-7 0 -7 -7.5t7 -7.5t7 7.5t-7 7.5z" />
    <glyph glyph-name="order1" unicode="&#xe62c;" 
d="M893 -148l-35 -35l-113 113q-48 -35 -105 -35q-74 0 -126 52t-52 125.5t52 125.5t125.5 52t125.5 -52t52 -126q0 -59 -37 -107zM639.5 201q-53.5 0 -91 -37.5t-37.5 -91t37.5 -91.5t91 -38t91.5 38t38 91.5t-38 91t-91.5 37.5zM190 237v62h192v-62h-192zM190 556h450v-64
h-450v64zM640 365h-450v64h450v-64zM705 636q0 20 -14.5 35t-35.5 15h-477q-21 0 -35.5 -15t-14.5 -35v-542q0 -21 14.5 -35.5t35.5 -14.5h206v-63h-219q-41 0 -70.5 29.5t-29.5 70.5v566q0 41 29.5 70.5t70.5 29.5h501q41 0 70.5 -29.5t29.5 -70.5v-347h-61v336z" />
    <glyph glyph-name="order2" unicode="&#xe663;" 
d="M204 -84h-60q-36 0 -56 32q-7 13 -8 28v7v760q0 35 27 55q14 11 33 12h4h615q23 0 39 -13t21 -30q3 -10 3 -23q1 -6 1 -56v-6h6h60q23 -2 39.5 -19t17.5 -41v-6v-762q0 -29 -17 -46q-18 -19 -43 -20h-6h-611q-38 0 -57 33q-8 13 -8 31v58v6zM266 -148h6q432 0 607 -1
q6 0 6 6v756l-1 5h-61v-7v-627q-1 -13 -3 -22q-7 -22 -23.5 -34t-38.5 -12h-485h-7v-64zM451 491h-189h-31q-19 -1 -27 -18t3 -32q9 -15 30 -15q81 1 426 1h5q19 0 27 17t-1 31q-8 16 -29 16h-214zM450 299h-213q-7 0 -12 -1q-16 -3 -22 -19t4 -30q11 -14 29 -14h348h82
q19 0 28 15.5t1 32.5q-9 16 -30 16h-215zM449 43h216q21 0 30 18q9 19 -4 36q-9 11 -28 11h-426h-4q-20 -1 -28.5 -17.5t0.5 -30.5q10 -17 31 -17h213zM543 618h124q20 0 28 18q9 19 -3 35q-9 12 -28 12h-126h-117q-25 0 -32 -19q-6 -18 3.5 -32t27.5 -14h123z" />
    <glyph glyph-name="paypal" unicode="&#xe76b;" 
d="M799 501q0 -120 -99.5 -199t-268.5 -79h-67l-52 -226h-162l158 715h270q104 0 162.5 -58.5t58.5 -152.5zM628 496q0 83 -115 83h-72l-47 -215h63q76 0 123.5 32.5t47.5 99.5zM846 531q9 -70 -11 -130.5t-61.5 -103t-99.5 -72.5t-126 -44t-140 -13l-52 -222h-113l-13 -58
h174l50 222q85 3 157 24.5t121.5 55t83.5 77t47.5 89t9.5 91.5t-27 84z" />
    <glyph glyph-name="brand3" unicode="&#xe61e;" horiz-adv-x="1083" 
d="M232.5 631q39.5 0 67 26.5t27.5 64t-27.5 64t-67 26.5t-67.5 -26.5t-28 -64t28 -64t67.5 -26.5zM398 367v68q0 4 1.5 6t2.5 2h2h49v61q-2 28 -16.5 48.5t-33 29.5t-37 14t-30.5 6h-13h-52l-45 -69l-44 69h-50q-38 -1 -66 -11.5t-40 -23.5t-18.5 -29.5t-7 -23t-0.5 -10.5
v0v-222v0v-0.5v-0.5q0 -16 12 -27.5t28.5 -11.5t28 11.5t11.5 27.5v0.5v0.5v0v206h26l-1 -648q0 -21 16 -36t38.5 -15t38.5 15t16 36v418h24v-418h1q0 -22 15.5 -36.5t38 -14.5t38.5 15t16 36l-1 649h27v-207v0q0 -16 11.5 -27t28 -11t28.5 11t12 27v0v76h-48v0l-2 -0.5
t-3.5 2t-1.5 7.5zM862 631q39 0 67 26.5t28 64t-28 64t-67 26.5t-67 -26.5t-28 -64t28 -64t67 -26.5zM953 602h-52l-45 -69l-44 69h-50q-39 -1 -66.5 -11t-39.5 -24.5t-18.5 -28.5t-7.5 -24v-10v-51q52 -38 59 -44q3 -4 3 -7.5t-2 -5.5l-2 -2l-58 -45v-67v0v-1
q0 -16 11.5 -27.5t28.5 -11.5t28.5 11.5t11.5 27.5v0.5v0.5v0v206h25v-648q0 -21 16 -36t38.5 -15t38.5 15t16 36v418h24v-418h1q0 -22 15.5 -36.5t38 -14.5t38 15t15.5 36v649h26v-207v0q0 -16 12 -27t28.5 -11t28.5 11t12 27v0v222q-3 28 -17 48.5t-32.5 29.5t-37 14
t-31.5 6h-12zM663 407q-4 5 -48 37l-45 32q-11 11 -11 -3v-37h-17h-73h-53q-5 0 -5 -7v-56q0 -4 1.5 -6t3.5 -2h1h52h74h19v-40q0 -5 2.5 -5t5.5 2l2 2l43 34l48 37v0q7 6 0 12v0z" />
    <glyph glyph-name="brand1" unicode="&#xe61f;" horiz-adv-x="1163" 
d="M53 267v-479h176v573l-135 -136zM351 484v-696h176v520l-175 177zM642 192v-404h176v523l-147 -148zM1069 576l-127 -129v-659h176v672h-49v116zM919 811v-57h104l-337 -339l-333 335l-353 -354l81 -82l272 273l333 -334l420 422v-143h57v279h-244z" />
    <glyph glyph-name="order3" unicode="&#xe638;" 
d="M379 796h288q10 0 18 -8t8 -18v-27q0 -10 -8 -18t-18 -8h-288q-11 0 -18.5 8t-7.5 18v27q0 10 7.5 18t18.5 8zM865 -199h-706q-44 0 -74.5 31t-30.5 74v785q0 43 30.5 74t74.5 31h104v-79h-78q-22 0 -37 -15t-15 -37v-733q0 -21 15 -36.5t37 -15.5h654q22 0 37 15.5
t15 36.5v733q0 22 -15 37t-37 15h-78v79h104q44 0 74.5 -31t30.5 -74v-785q0 -43 -30.5 -74t-74.5 -31zM237 482h550q11 0 18.5 -8t7.5 -18v-27q0 -10 -7.5 -18t-18.5 -8h-550q-11 0 -18.5 8t-7.5 18v27q0 10 7.5 18t18.5 8zM237 194h550q11 0 18.5 -7.5t7.5 -18.5v-26
q0 -11 -7.5 -19t-18.5 -8h-550q-11 0 -18.5 8t-7.5 19v26q0 11 7.5 18.5t18.5 7.5z" />
    <glyph glyph-name="brand2" unicode="&#xe633;" 
d="M544 -3q30 29 31 30q39 38 125.5 122t133.5 129q8 8 55 53q12 12 22 1q11 -10 -1 -22q-41 -40 -146 -142q-10 -9 -60.5 -58t-77.5 -75q-17 -17 -51.5 -50.5t-51.5 -50.5q-10 -9 -22.5 -8t-22.5 11q-27 30 -78 87t-74 81q-236 262 -260 288l-5 6q46 66 48 69
q102 147 136 197q4 6 11 6h499q11 0 18 -9q35 -47 101.5 -134t81.5 -106q3 -5 4 -8q2 -6 -1.5 -10.5t-10.5 -4.5q-184 -1 -245 -1q-8 0 -11 -8q-33 -85 -147 -386l-2 -6zM502 -22q3 7 3 8q77 202 156 407q5 13 -9 13h-295h-7zM105 398l-0.5 -0.5t-0.5 -1.5l1 -1l1 -1l1 -1
l1 -1l1 -1v-1l1 -1l1 -1l1 -1l1 -1l1 -1l1 -1l1 -1l1 -1l1 -1v-1l1 -1l1 -1l1 -1l1 -1l1 -1l1 -1l1 -1l1 -1l1 -1v-1l1 -1l1 -1l1 -1l1 -1l1 -1l1 -1l1 -1l1 -1l1 -1l1 -1v-1l1 -1l1 -1l1 -1l1 -1l1 -1l1 -1l1 -1l1 -1l1 -1v-1l1 -1l1 -1l1 -1l1 -1l1 -1l1 -1l1 -1l1 -1
l1 -1v-1l1 -1l1 -1l1 -1l1 -1l1 -1l1 -1l1 -1l1 -1l1 -1l1 -1v-1l1 -1l1 -1l1 -1l1 -1l1 -1l1 -1l1 -1l1 -1l1 -1v-1l1 -1l1 -1l1 -1l1 -1l1 -1l1 -1l1 -1l1 -1l1 -1v-1l1 -1l1 -1l1 -1l1 -1l1 -1l1 -1l1 -1l1 -1l1 -1l1 -1v-1l1 -1l1 -1l1 -1l1 -1l1 -1l1 -1l1 -1l1 -1
l1 -1v-1l1 -1l1 -1l1 -1l1 -1l1 -1l1 -1l1 -1l1 -1l1 -1v-1l1 -1l1 -1l1 -1l1 -1l1 -1l1 -1l1 -1l1 -1l1 -1l1 -1v-1l1 -1l1 -1l1 -1l1 -1l1 -1l1 -1l1 -1l1 -1l1 -1v-1l1 -1l1 -1l1 -1l1 -1l1 -1l1 -1l1 -1l1 -1l1 -1v-1l1 -1l1 -1l1 -1l1 -1l1 -1l1 -1l1 -1l1 -1l1 -1
l1 -1v-1l1 -1l1 -1l1 -1l1 -1l1 -1l1 -1l1 -1l1 -1l1 -1v-1l1 -1l1 -1l1 -1l1 -1l1 -1l1 -1l1 -1l1 -1l1 -1v-1l1 -1l1 -1l1 -1l1 -1l1 -1l1 -1l1 -1l1 -1l1 -1l1 -1v-1l1 -1l1 -1l1 -1l1 -1l1 -1l1 -1l1 -1l1 -1l1 -1l1 -1l1 -1l1 -1l1 -1l1 -1v-1l1 -1l1 -1l1 -1l1 -1
l1 -1l1 -1l1 -1l1 -1l1 -1v-1l1 -1l1 -1l1 -1l1 -1l1 -1l1 -1l1 -1l1 -1l1 -1v-1l1 -1l1 -1l1 -1l1 -1l1 -1l1 -1l1 -1l1 -1l1 -1l1 -1v-1l1 -1l1 -1l1 -1l1 -1l1 -1l1 -1l1 -1l1 -1l1 -1v-1l1 -1l1 -1l1 -1l1 -1l1 -1l1 -1l1 -1l1 -1l1 -1v-1l1 -1l1 -1l1 -1l1 -1l1 -1
l1 -1l1 -1l1 -1l1 -1v-1l1 -1l1 -1l1 -1l1 -1l1 -1l1 -1l1 -1l1 -1l1 -1l1 -1v-1l1 -1l1 -1l1 -1l1 -1l1 -1l1 -1l1 -1l1 -1l1 -1v-1l1 -1l1 -1l1 -1l1 -1l1 -1l1 -1l1 -1l1 -1l1 -1v-1l1 -1l1 -1l1 -1l1 -1l1 -1l1 -1l1 -1l1 -1l1 -1l1 -1v-1l1 -1l1 -1l1 -1l1 -1l1 -1
l1 -1l1 -1l1 -1l1 -1v-1l1 -1l1 -1l1 -1l1 -1l1 -1l1 -1l1 -1l1 -1l1 -1v-1l1 -1l1 -1l1 -1l1 -1l1 -1l1 -1l1 -1l1 -1l1 -1l1 -1v-1l1 -1l1 -1l1 -1l1 -1l1 -1l1 -1l1 -1l1 -1l1 -1v-1l1 -1l1 -1l1 -1l1 -1l1 -1l1 -1l1 -1l1 -1l1 -1v-1l1 -1l1 -1l1 -1l1 -1l1 -1l1 -1
l1 -1l1 -1l1 -1l1 -1v-1l1 -1l1 -1l1 -1l1 -1l1 -1l1 -1l1 -1l1 -1l1 -1v-1l1 -1l1 -1l1 -1l1 -1l1 -1l1 -1l1 -1l1 -1l1 -1l1 -2q1 4 -1 9q-104 290 -135 378q-2 8 -11 8h-200h-7zM639 437l-4 7q-96 157 -112 184q-9 15 -23 13q-9 -1 -12 -7q-21 -36 -109 -189q0 -1 -4 -8
h264zM681 428l4 10l76 176q4 9 -2 18t-16 9h-175q-1 0 -9 -1v-1l1 -1v-1l1 -1l1 -1v-1l1 -1v-1l1 -1v-1l1 -1l1 -1v-1l1 -1v-1l1 -1v-1l1 -1l1 -1v-1l1 -1v-1l1 -1l1 -1v-1l1 -1v-1l1 -1v-1l1 -1l1 -1v-1l1 -1v-1l1 -1v-1l1 -1l1 -1v-1l1 -1v-1l1 -1l1 -1v-1l1 -1v-1l1 -1
v-1l1 -1l1 -1v-1l1 -1v-1l1 -1v-1l1 -1l1 -1v-1l1 -1v-1l1 -1v-1l1 -1l1 -1v-1l1 -1v-1l1 -1l1 -1v-1l1 -1v-1l1 -1v-1l1 -1l1 -1v-1l1 -1v-1l1 -1v-1l1 -1l1 -1v-1l1 -1v-1l1 -1v-1l1 -1l1 -1v-1l1 -1v-1l1 -1l1 -1v-1l1 -1v-1l1 -1v-1l1 -1l1 -1v-1l1 -1v-1l1 -1v-1l1 -1
l1 -1v-1l1 -1v-1l1 -1v-1l1 -1l1 -1v-1l1 -1v-1l1 -1v-1l1 -1l1 -1v-1l1 -1v-1l1 -1l1 -1v-1l1 -1v-1l1 -1v-1l1 -1l1 -1v-1l1 -1v-1l1 -1v-1l1 -1l1 -1v-1l1 -1v-1l1 -1v-1l1 -1l1 -1v-1l1 -1v-1l1 -1l1 -1v-1l1 -1v-1l1 -1v-1l1 -1l1 -1v-1l1 -1v-1l1 -1v-1l1 -1l1 -1v-1
l1 -1v-1l1 -1l1 -1v-1l1 -1v-1l1 -1v-1l1 -1l1 -1v-1l1 -1v-1l1 -1v-1l1 -1l1 -1v-1l1 -1v-1l1 -1l1 -1v-1l1 -1v-1l1 -1v-1l1 -1l1 -1v-1l1 -1v-1l1 -1v-1l1 -1l1 -1v-1l1 -1v-1l1 -1zM340 438q58 100 117 202l-6 1h-181q-6 0 -10 -6t-1 -12q7 -17 53 -121v-1l1 -1v-1l1 -1
v-1l1 -1v-1l1 -1v-1v-1l1 -1v-1l1 -1v-1h1v-1v-1l1 -1v-1l1 -1v-1l1 -1v-1v-1l1 -1v-1l1 -1v-1l1 -1v-1v-1l1 -1v-1l1 -1v-1l1 -1v-1v-1l1 -1v-1l1 -1v-1l1 -1v-1v-1l1 -1v-1l1 -1v-1l1 -1v-1v-1l1 -1v-1l1 -1v-1l1 -1v-1v-1l1 -1v-1l1 -1v-1l1 -1v-1zM237 601v-1l-1 -1
l-1 -1v-1l-1 -1l-1 -1v-1l-1 -1l-1 -1v-1l-1 -1l-1 -1l-1 -1v-1l-1 -1l-1 -1v-1l-1 -1l-1 -1v-1l-1 -1l-1 -1l-1 -1v-1l-1 -1l-1 -1v-1l-1 -1l-1 -1v-1l-1 -1l-1 -1v-1l-1 -1l-1 -1l-1 -1v-1l-1 -1l-1 -1v-1l-1 -1l-1 -1v-1l-1 -1l-1 -1l-1 -1v-1l-1 -1l-1 -1v-1l-1 -1
l-1 -1v-1l-1 -1l-1 -1v-1l-1 -1l-1 -1l-1 -1v-1l-1 -1l-1 -1v-1l-1 -1l-1 -1v-1l-1 -1l-1 -1v-1l-1 -1l-1 -1l-1 -1v-1l-1 -1l-1 -1v-1l-1 -1l-1 -1v-1l-1 -1l-1 -1v-1l-1 -1l-1 -1l-1 -1v-1l-1 -1l-1 -1v-1l-1 -1l-1 -1v-1l-1 -1l-1 -1v-1l-1 -1l-1 -2l-1 -1l-1 -1l-1 -1
v-1l-1 -1l-1 -1v-1l-1 -1l-1 -1v-1l-1 -1l-1 -1v-1l-1 -1l-1 -1v-1l-1 -1l-1 -1l-1 -1v-1l-1 -1l-1 -1v-1l-1 -1l-1 -1v-1l-1 -1l-1 -1v-1l-1 -1l-1 -1l-1 -1v-1l-1 -1l-1 -1v-1l-1 -1l-1 -1v-1l-1 -1l-1 -1v-1l-1 -1l-1 -1l-1 -1v-1l-1 -1l-1 -1v-1l-1 -1l-1 -1v-1l-1 -1
l-1 -1v-1l-1 -1l-1 -1l-1 -1v-1l-1 -1l-1 -1v-1l-1 -1l-1 -1v-1l-1 -1l-1 -1v-1l-1 -1l-1 -1l-1 -1v-1l-1 -1l-1 -1v-1l-1 -1l-1 -1h197q-23 53 -76 175zM785 595q-12 -23 -30 -72q-30 -65 -43 -98h204q-98 129 -131 170z" />
    <glyph glyph-name="icon-privacy" unicode="&#xe632;" 
d="M832 416h-67v192q0 53 -37.5 90.5t-90.5 37.5h-256q-52 0 -90 -37.5t-38 -90.5v-192h-61q-26 0 -45 -19t-19 -45v-448q0 -26 19 -45t45 -19h640q26 0 45 19t19 45v448q0 26 -19 45t-45 19zM317 608q0 26 19 45t45 19h256q27 0 45.5 -19t18.5 -45v-192h-384v192zM832 -96
h-640v448h640v-448zM311 91h85q34 0 56 9.5t33.5 24.5t15.5 32t4 32t-4 32.5t-15.5 32t-33.5 24.5t-56 10h-141v-320h56v123zM311 242h83q12 0 21.5 -2t17 -8t12 -16.5t4.5 -26.5q0 -15 -5 -25t-13.5 -16t-18 -9t-19.5 -3h-82v106zM598 78q0 19 5 34t13.5 25t20 15t24.5 5
h11q6 -1 11 -2v49q-1 1 -7 1q-4 1 -12 1q-12 0 -23.5 -4.5t-20.5 -12t-15.5 -16.5t-8.5 -18h-1v45h-48v-232h51v110v0zM706 200h51v-232h-51v232zM706 288h51v-49h-51v49z" />
    <glyph glyph-name="luxiang1" unicode="&#xe63d;" 
d="M577 595h-479q-37 0 -63 -26.5t-26 -63.5v-410q0 -37 26 -63.5t63 -26.5h479q37 0 63 26.5t26 63.5v410q0 37 -26 63.5t-63 26.5zM717 211l218 -139v456l-218 -139v-178zM966 528h49v-456h-49v456z" />
    <glyph glyph-name="sale1" unicode="&#xe621;" horiz-adv-x="1042" 
d="M935 491h-76l-245 174q3 11 3 19q0 40 -29 69t-69.5 29t-69 -29t-28.5 -69q0 -9 3 -21l-241 -172h-77q-44 0 -75 -31t-31 -75v-444q0 -44 31 -75.5t75 -31.5h829q44 0 75 31.5t31 75.5v444q0 44 -31 75t-75 31zM519 720q15 0 25.5 -10.5t10.5 -25.5t-10.5 -26t-25.5 -11
t-26 11t-11 26t11 25.5t26 10.5zM455 609q28 -23 64 -23q37 0 65 25l168 -120h-463zM979 -59q0 -19 -13 -32t-31 -13h-829q-18 0 -31 13t-13 32v444q0 19 13 32t31 13h829q18 0 31 -13t13 -32v-444zM330 169q-10 15 -30 24q-13 6 -47 14q-31 7 -37 13q-5 4 -5 11q0 9 8 16
q9 7 30 7t31 -8q9 -8 11 -24l1 -8l42 3v8q-1 20 -12 37q-11 16 -30 25q-19 8 -44 8q-22 0 -40 -8q-20 -8 -30 -24q-10 -15 -10 -33q0 -16 8 -30q9 -14 25 -22q13 -7 42 -14q26 -6 35 -9q11 -5 15 -10t4 -12t-4 -13q-4 -5 -14 -9q-11 -4 -24 -4q-16 0 -28 5t-17.5 13t-6.5 22
l-1 8l-42 -4v-7q1 -23 13 -41.5t33 -27.5t50 -9q24 0 43 9q20 9 30.5 25t10.5 36q0 18 -10 33zM594 291h-44v-220l-90 220h-41l-85 -222h47l22 63h75l23 -63h194v41h-101v181zM417 170l19 49q2 7 4 13q2 -8 5 -16l18 -46h-46zM881 110h-126v53h113v41h-113v47h121v40h-165
v-221h170v32v8z" />
    <glyph glyph-name="cpu" unicode="&#xe60c;" 
d="M226 793q-1 -3 -1 -5v-82q0 -17 12.5 -29.5t30 -12.5t29.5 12.5t12 29.5v82v5h-83zM391 793v-5v-82q0 -17 12 -29.5t29.5 -12.5t30 12.5t12.5 29.5v82v5h-84zM557 793q-1 -3 -1 -5v-82q0 -17 12.5 -29.5t30 -12.5t29.5 12.5t12 29.5v82v5h-83zM722 793v-5v-82
q0 -17 12 -29.5t29.5 -12.5t29.5 12.5t12 29.5v82q0 2 -1 5h-82zM264 624q-34 0 -58.5 -24t-24.5 -58v-499q0 -34 24.5 -58.5t58.5 -24.5h500q34 0 58 24.5t24 58.5v499q0 34 -24 58t-58 24h-500zM17 582v-82v0h82q17 0 29.5 12t12.5 29t-12.5 29t-29.5 12h-82v0zM931 582
q-17 0 -29.5 -12t-12.5 -29t12.5 -29t29.5 -12h78v82h-78zM262 542h498v-494h-498v494zM295 509v-429h433v429h-433zM931 418q-17 0 -29.5 -12t-12.5 -29.5t12.5 -30t29.5 -12.5h78v84h-78zM17 417v-84h81q18 0 30 12.5t12 30t-12 29.5t-30 12h-81zM931 253
q-17 0 -29.5 -12.5t-12.5 -30t12.5 -29.5t29.5 -12h78v84h-78zM17 251v-84h81q18 0 30 12t12 29.5t-12 30t-30 12.5h-81zM17 87v-84v0h82q17 0 29.5 12.5t12.5 30t-12.5 29.5t-29.5 12h-82v0zM931 87q-17 0 -29.5 -12t-12.5 -29.5t12.5 -30t29.5 -12.5h78v84h-78zM264.5 -80
q-17.5 0 -29.5 -12t-12 -30v-79h83v79q0 18 -12 30t-29.5 12zM430.5 -80q-17.5 0 -30 -12t-12.5 -30v-79h84v79q0 18 -12 30t-29.5 12zM596.5 -80q-17.5 0 -29.5 -12t-12 -30v-79h83v79q0 18 -12 30t-29.5 12zM761.5 -80q-17.5 0 -29.5 -12t-12 -30v-79h83v79q0 18 -12 30
t-29.5 12z" />
    <glyph glyph-name="cpu1" unicode="&#xe60d;" 
d="M896 428v64h-64v64q0 27 -18.5 45.5t-45.5 18.5h-64v64h-64v-64h-96v64h-64v-64h-96v64h-64v-64h-64q-27 0 -45.5 -18.5t-18.5 -45.5v-64h-64v-64h64v-96h-64v-64h64v-96h-64v-64h64v-64q0 -27 18.5 -45.5t45.5 -18.5h64v-64h64v64h96v-64h64v64h96v-64h64v64h64
q27 0 45.5 18.5t18.5 45.5v64h64v64h-64v96h64v64h-64v96h64zM768 44h-512v512h512v-512zM352 108h320q13 0 22.5 9.5t9.5 22.5v320q0 13 -9.5 22.5t-22.5 9.5h-320q-13 0 -22.5 -9.5t-9.5 -22.5v-320q0 -13 9.5 -22.5t22.5 -9.5z" />
    <glyph glyph-name="print" unicode="&#xe60e;" 
d="M917 62h-139v42v14v70v42v42h-532v-42v-42v-70v-14v-42h-139q-18 0 -30 12.5t-12 29.5v392q0 17 12 29.5t30 12.5h810q18 0 30 -12.5t12 -29.5v-392q0 -17 -12 -29.5t-30 -12.5zM190.5 454q-17.5 0 -29.5 -12.5t-12 -30t12 -29.5t29.5 -12t29.5 12t12 29.5t-12 30
t-29.5 12.5zM736 580h-448v0v41v0v84q0 9 4 17q11 25 38 25h364h1h1q5 0 6 -1v0q6 -1 13 -5v0v0q5 -3 8 -6v0v0q3 -3 5 -6v0q7 -11 8 -23v0v0v-126v0v0zM736 146v-209v-14v-28q0 -18 -12.5 -30t-29.5 -12h-364q-17 0 -29.5 12t-12.5 30v28v14v209v84h448v-84zM652 146h-280
v-42h280v42zM652 62h-280v-42h280v42zM652 -21h-280v-42h280v42z" />
    <glyph glyph-name="duankailianjie" unicode="&#xe627;" 
d="M717 318l69 -73q29 -30 34 -79t-7.5 -90t-32.5 -60t-61.5 -29.5t-90 -2.5t-77.5 38l-69 73zM532 210q9 -9 8.5 -22t-9.5 -22v0q-10 -9 -23 -9t-22 10l-84 88q-9 10 -8.5 23t9.5 22v0q10 9 23 8.5t22 -9.5zM652 324q9 -10 8.5 -23t-10.5 -22v0q-9 -9 -22 -8.5t-22 9.5
l-84 89q-9 9 -8.5 22t9.5 22v0q10 9 23 9t22 -10zM281 601q-15 12 -25 22l-105 111q-11 11 -26.5 11.5t-27 -10.5t-11.5 -26.5t10 -26.5l105 -111q6 -6 21 -26q-13 -29 -17.5 -63t3.5 -70t31 -60l69 -74l235 223l-69 74q-23 24 -59 33.5t-70.5 7t-63.5 -14.5zM803 51
q10 -16 20 -27l105 -110q10 -12 10 -27.5t-11.5 -26t-27 -10t-26.5 11.5l-105 110q-6 7 -25 22q-30 -11 -64 -13.5t-69.5 7.5t-58.5 34l-70 73l235 223l70 -73q23 -24 31 -61t3 -71t-17 -62z" />
    <glyph glyph-name="sheshibaoxiu" unicode="&#xe628;" 
d="M609 359q37 -15 77 -15q83 0 142 59t59 143q0 15 -3 33l-143 -152l-135 24l-46 129l154 164q-16 3 -28 3q-84 0 -143 -59t-59 -142q0 -42 17 -81q-69 -121 -192 -234q-17 5 -35 5q-52 0 -88.5 -36.5t-36.5 -88t36.5 -87.5t88 -36t88 36t36.5 88q0 24 -9 47
q89 118 220 200v0zM274 46q-28 0 -47.5 19t-19.5 46.5t19.5 47t47 19.5t47 -19.5t19.5 -47t-19.5 -46.5t-46.5 -19v0zM285 515l118 -120l57 56l-118 121l28 28l-158 158l-113 -113l158 -158l28 28v0zM652 333q-4 -1 -11 -3.5t-27.5 -13.5t-39.5 -25t-43 -41t-43 -59
q-1 3 43.5 -42.5t90 -93t45.5 -46.5q23 -24 56 -24t56 24l46 45q23 23 23 56t-23 57l-173 166v0zM730 40q-6 -6 -14.5 -6t-14.5 6l-145 145q-6 6 -6 14t6 14t14.5 6t13.5 -6l146 -145q5 -6 5 -14t-5 -14v0zM793 104q-5 -6 -13.5 -6t-14.5 6l-145 145q-6 6 -6 14t6 14t14 6
t14 -6l145 -145q6 -6 6 -14.5t-6 -13.5v0zM793 104z" />
    <glyph glyph-name="jianpan" unicode="&#xe60f;" 
d="M859 516h-330q2 20 8.5 34t13 21t21.5 12.5t23 6.5t28 4q17 2 25.5 3.5t23.5 6t24 10.5t20 16.5t17 24.5t10.5 35t4.5 47h-34q0 -23 -3 -40.5t-10 -29t-13.5 -18.5t-20 -11t-22 -6t-26.5 -4q-22 -3 -32.5 -5t-30 -9.5t-29.5 -18t-19.5 -31t-12.5 -48.5h-339
q-28 0 -48 -21t-20 -49v-339q0 -29 20.5 -52.5t47.5 -23.5h712q27 0 47.5 23.5t20.5 52.5v339q0 28 -24 49t-53 21zM681 412h68v-67h-68v67zM698 311v-68h-67v68h67zM580 412h68v-67h-68v67zM597 311v-68h-68v68h68zM478 412h68v-67h-68v67zM495 311v-68h-68v68h68zM376 412
h68v-67h-68v67zM393 311v-68h-67v68h67zM275 412h68v-67h-68v67zM173 412h68v-67h-68v67zM173 311h119v-68h-119v68zM241 141h-68v68h68v-68zM343 141h-68v68h68v-68zM648 141h-272v68h272v-68zM749 141h-68v68h68v-68zM851 141h-68v68h68v-68zM851 243h-119v68h119v-68z
M851 345h-68v67h68v-67z" />
    <glyph glyph-name="r" unicode="&#xe6a5;" 
d="M894 555q0 -246 -194 -317l259 -366h-281l-227 326h-158v-326h-228v1023h388q238 0 339.5 -80.5t101.5 -259.5v0zM619 434q43 38 43 120.5t-44 113.5t-154 31h-171v-303h167q117 0 159 38v0z" />
    <glyph glyph-name="gps" unicode="&#xe610;" horiz-adv-x="1026" 
d="M599 183l-16 -31q59 -7 95.5 -23.5t36.5 -31.5q0 -13 -24 -27t-73 -24t-109 -10q-59 0 -107.5 10t-73 23.5t-24.5 27.5q0 18 51.5 37t128.5 22l25 -52l178 360v0q28 49 28 102q0 85 -60.5 145.5t-145.5 60.5t-145.5 -60.5t-60.5 -145.5q0 -55 27 -102v0l136 -276
q-83 -6 -139.5 -30t-56.5 -63q0 -29 35.5 -51t89 -32.5t114.5 -10.5t114.5 10.5t89 32.5t35.5 51q0 33 -41.5 55.5t-107.5 32.5v0v0zM424 592v0q0 36 25 61t61.5 25t61.5 -25t25 -61.5t-25 -61.5t-61.5 -25t-61.5 25t-25 62v0zM424 592z" />
    <glyph glyph-name="icon2" unicode="&#xe611;" 
d="M751 -13v2q-4 -1 -8 -1q-16 0 -28 11.5t-12 28t12 28t28 11.5q4 0 8 -1v8q87 44 139.5 127t52.5 183t-52.5 183.5t-139.5 127.5v7q-4 -1 -8 -1q-16 0 -28 11.5t-12 28t12 28.5t28 12q4 0 8 -1v2q122 -48 197 -156t75 -241.5t-75 -241.5t-197 -156zM831 384
q0 -78 -42 -142.5t-111 -96.5q-12 -14 -30 -14q-17 0 -28.5 11.5t-11.5 28t11.5 28t28.5 11.5q6 0 13 -3v16q42 26 66 68.5t24 92.5t-24 92.5t-66 68.5v16q-7 -2 -13 -2q-17 0 -28.5 11.5t-11.5 28t11.5 28t28.5 11.5q18 0 30 -14q69 -33 111 -97.5t42 -142.5zM448 -60
q-5 5 -43.5 43t-103 102.5t-109.5 108.5h-162q-13 0 -21.5 8.5t-8.5 21.5v321q0 12 8.5 20.5t21.5 8.5h163q228 228 255 254q10 10 25 13t27 -5.5t12 -28.5v-846q0 -28 -23.5 -33.5t-40.5 12.5z" />
    <glyph glyph-name="faq" unicode="&#xe620;" 
d="M512 832q-187 0 -317.5 -130.5t-130.5 -317.5t130.5 -317.5t317.5 -130.5t317.5 130.5t130.5 317.5t-130.5 317.5t-317.5 130.5zM576 64h-128v128h128v-128zM576 256h-128v448h128v-448z" />
    <glyph glyph-name="diannao1" unicode="&#xe612;" horiz-adv-x="1391" 
d="M1130 43v-86h87v-85h-522v85h87v86h-260v768h869v-768h-261zM1304 725h-695v-597h695v597zM695 299v341h348zM0 896h435v-1024h-435v1024zM87 128h87v85h-87v-85zM87 299h87v85h-87v-85zM87 555h261v85h-261v-85zM87 725h261v86h-261v-86z" />
    <glyph glyph-name="pingban" unicode="&#xe613;" 
d="M757 741h-490v-632h490v632v0zM563 792q0 4 -3 7t-7 3h-102q-5 0 -8 -3t-3 -7v-10q0 -5 3 -8t8 -3h102q4 0 7 3t3 8v10v0zM512 -14q17 0 29 12t12 29t-12 29t-29 12t-29 -12t-12 -29t12 -29t29 -12v0zM757 -75h-490q-25 0 -43 18t-18 43v796q0 25 18 43t43 18h490
q25 0 43 -18t18 -43v-796q0 -25 -18 -43t-43 -18v0zM757 -75z" />
    <glyph glyph-name="ebay" unicode="&#xe677;" 
d="M271 393v48h-1q0 1 -0.5 2.5t-0.5 2.5h-1v7l-0.5 0.5t-1.5 0.5v3h-1l-0.5 1.5t-0.5 2.5h-1v2h-1v3l-1 0.5l-1 0.5q0 1 -0.5 2.5t-0.5 2.5h-2q0 4 -3 5v3q-1 0 -2.5 0.5t-2.5 0.5q0 4 -2 6.5t-2 4.5q-2 0 -5 2t-3 3v2l-2 -1h-2q1 0 1 0.5t1 1.5q-1 0 -5 2t-7 3l-0.5 1
t-0.5 2h-1v1h-5q0 1 -1 2l-1 1h-4l-1 1.5l-1 1.5h-6v0q0 1 -2 1v2h-7v1h-3v1h-5v1h-9v1h-3v1h-27h-17v-1h-4v-1q-2 0 -7.5 -0.5t-7.5 -0.5q-1 0 -1 -0.5v-1.5h-9v-1t-1 -1h-3t-4 -1l-0.5 -1l-0.5 -1q-1 0 -3 -0.5t-3 -0.5v-2q-5 -1 -8 -1v-2q-2 -1 -3.5 -2t-4.5 -1v-2
q-1 0 -2.5 -0.5l-1.5 -0.5v-2q-1 0 -2.5 -0.5l-1.5 -0.5v-3h-5v-2h-2v-3h-3v-4h-1.5t-2.5 -1q0 -2 -2 -5t-3 -5h-2v-4q-1 0 -2 -1h-1v-4q-1 0 -2 -1l-1 -1v-6h-1q0 -1 -1 -3t-1 -3h-1v-3h-1v-6h-1v-4h-1v-4h-1v-10q-6 -20 0 -41v-9h1v-5h1v-3h1v-5h1v-3h1v-3h1v-3h1t1 -1v-5
l1 -0.5l1 -0.5v-2h1q1 0 2 -1q0 -1 0.5 -3.5t0.5 -3.5h2q1 0 1 -1.5v-2.5h1q2 -3 4 -3v-2h2v-3h1l3 -4q2 -1 2.5 -1t0.5 -1v-1q1 -1 2 -1h2v-1q2 -2 5 -3q0 -1 1 -2v-1h3t3 -1v-2q4 -1 7 -3v-1l1 -1q2 0 5 -0.5t4 -0.5v-1q3 -2 7 -2v-2q5 0 19 -4q6 0 16.5 -1t16.5 -1h15v1
h13v1h10v1h9l1 2h2v1h8q0 1 0.5 2l0.5 1h6v2q1 0 3 0.5t3 0.5v1h2v1q5 3 9 3v2q1 1 3 1h3v3h3v3h1.5t2.5 1q0 2 3 3q0 1 0.5 2l1.5 3q2 0 3 2q1 0 2 1v3l1.5 0.5l1.5 0.5v4h2q1 2 4 10t3 14h-50q0 -1 -0.5 -3t-0.5 -3h-2v-3h-1q-1 -2 -3 -3q-1 -5 -4 -6v-2h-3v-3q-3 0 -5 -2
v-1q-1 0 -2 -0.5l-1 -0.5l-1 -2h-4v-1q-2 -2 -5 -2v-2q-6 0 -20 -4h-23h-4v-1h-1l-1 2h-4v1h-2v1q-1 0 -4.5 0.5t-4.5 0.5l-1 1v1h-4v1q-1 0 -2.5 0.5l-1.5 0.5l-1 1v1h-2v1q-1 1 -4 1v2q-1 0 -2.5 0.5t-2.5 0.5q-1 5 -7 6q0 5 -5 6q0 1 -0.5 3l-0.5 2h-2q-1 4 -3 9h-1v3
l-1 0.5l-1 0.5v5l-1 0.5l-1 0.5q-1 3 -1 21h196zM75 437h1q2 5 2 10h-2v1h2.5t1.5 1v3l2 3t2 5h2q0 1 0.5 2.5t0.5 2.5q3 1 3 3h2v3q3 0 5 2v1q1 1 2 1t1 2h5v2t1 1h4v2q1 1 2.5 1h2.5v2q6 1 10 2v2h4v1h4v1h5v1q10 2 23 -1h8v-1h3v-1h4v-2h2v-1h4v-1h2.5t1.5 -1q1 0 1 -0.5
v-1.5h2q1 0 1 -0.5v-1.5q1 0 2.5 -0.5t2.5 -0.5v-2h4q0 -2 3 -3v-2q2 -1 3 -3q1 0 2 -1h1q0 -1 0.5 -2.5t0.5 -2.5h4q0 -6 1 -7l1 -0.5l1 -0.5v-4q0 -1 1 -1h1v-2h1v-9h1.5t0.5 -1q2 -3 0 -12q-5 -1 -39 -1h-68h-26q-9 0 -10 1q-1 0 -2 0.5l-1 0.5v10zM757 472h2q0 2 -1 4
h-1v-4zM1000 515h-33v-2l-3 -1.5t-1 -2.5t-1 -3h-1q-3 -5 -3 -8h-2v-5h-1v-1h-2q-1 -6 -1 -11h-3q-1 -3 -4 -8t-3 -9q-1 0 -2 -0.5l-1 -0.5v-5h-1q-2 -3 -3 -6h-2q0 -3 -1 -6h-2q0 -2 -1 -5t-1 -6h-2v-3h-2q0 -2 -1.5 -5t-2.5 -6h-2v-4h-2q0 -3 -1 -6h-2q-1 -3 -1 -5
l-1 -0.5l-1 -0.5v-5q-1 0 -2 -0.5t-1 -1.5q-1 -4 -1 -9q-3 0 -3 -3h-2q-1 -5 -3 -9q-1 0 -1.5 -0.5l-0.5 -0.5v-3h-1q-2 -4 -3 -8h-3q0 -5 -2 -9h-1v-4h-1q-1 -2 -2 -5l-1 -0.5t-2 -0.5v1h-2q0 4 -2 6h-1v3q0 1 -1 1t-1 1v2h-1v4h-1q-2 2 -2 6q-1 0 -2 0.5l-1 0.5
q0 2 -1.5 5.5t-1.5 5.5h-2q-1 4 -2 6h-1v5h-3q-1 5 -3.5 9.5t-3.5 8.5h-2q0 3 -1 6h-2q0 3 -1 4h-1v2h-1v5h-2q0 3 -1 5h-1q-2 3 -2 6h-2q0 3 -1 7h-2q0 3 -1 4h-1v2h-1v4h-1q-2 3 -2 7q-2 0 -2 1h-1q-1 2 -1 5q-5 9 -5 11h-2q-1 4 -2 6h-1v6q-2 0 -2 1h-1v4q-1 0 -3 1
q0 2 -1 5l-2 1v2h-1v3l-2 1v2l-3 1v2h-55q0 -5 3 -9.5t3 -7.5h2q0 -3 1.5 -5t1.5 -6h2v-2h-1v1q-2 2 -3 6h-3v3h-3v3h-2v2q0 1 -1.5 0.5t-2.5 0.5t-1 2q-4 3 -7 4v2q-4 0 -6 1v2h-6q-1 4 -9 3v3q-8 0 -14 2v1h-11v1h-2v1h-28h-17v-1q-3 0 -7.5 -0.5t-7.5 -0.5v-1h-7
q0 -1 -1 -2h-11q-1 -1 -1 -2q-2 -1 -7 -1q-1 -1 -1 -3h-7v-2q-5 -1 -8 -1v-3h-1q0 -1 -2 -2t-3 -3q-2 -1 -3.5 -2t-4.5 -1v-3h-3v-3h-1v-5q-1 1 -1 1.5v1.5q-1 -1 -2 -1h-1q-1 -2 -1 -4h-1v-4h-1q-1 -1 -1 -4h-2q-1 -6 -1 -8h-1v-2h-1v-10h12h13h9q4 0 9 1v-1h6q0 5 1 10h3
v1q2 2 1.5 2.5t0.5 1.5h1l5 7q1 0 3 0.5l2 0.5v2l5 2.5t6 1.5v3q2 0 12 3h23h12v-1h5q0 -1 1 -2h1v1v-1h1h3v-2h1.5t2.5 -1v-1h4l1 -2q1 0 2.5 -0.5t2.5 -0.5v-2h4v-3l1.5 -0.5t2.5 -0.5q1 -1 1 -2q1 -2 3 -3v-3h3q1 -3 2 -5h1v-12q3 -8 2 -17q-1 0 -3 -0.5t-3 -0.5v-1
q-1 0 -3.5 0.5t-4.5 0.5q-4 -1 -34 -1q-26 0 -29 -1h-26q-1 -1 -1 -2h-8v-1h-9q-1 -1 -1 -2h-4v-1h-4v-1h-6v-1h-2v-1h-4q0 -1 -1 -2h-3q-6 -3 -7 -3v-2q-2 -1 -3 -3q-1 0 -3 -0.5t-3 -0.5q-1 -3 -2.5 -3.5t-1.5 -1.5h-3v-3q-4 -1 -5 -6h-1.5t-2.5 -1q0 -5 -2 -8h-1l-0.5 -1
t-0.5 -2h-2v21v23h-2q0 5 -3 6v3h2q0 4 -1 5h-1v3h-1v6h-1q-1 1 -1 4h-2q0 3 -2 6.5t-2 6.5h-2q0 1 -0.5 2.5t-0.5 2.5h-3v4h-2q-1 3 -3 3v3h-2q-1 3 -1.5 4t-2 1.5t-3.5 1.5v1t-1 2l-1.5 0.5t-2.5 1.5v2l-1.5 0.5t-2.5 0.5v2q-2 0 -4 2v1h-5l-0.5 1t-0.5 2q-2 3 -9 3v2
q-1 0 -3 0.5t-3 0.5l-0.5 1l-0.5 1q-2 1 -7 1v2h-8v1h-2v1h-6v1q-2 0 -8 0.5t-9 0.5v1h-19v-1q-2 0 -8 -0.5t-9 -0.5v-1h-3v-1h-4v-1h-7v-1q-4 -1 -9 -2v-2q-1 0 -3.5 -0.5t-4.5 -0.5v-2q-1 0 -3 -0.5t-3 -0.5q-1 -1 -2 -2.5t-2 -2.5h-2v-1q-6 -3 -6 -5h-2v-3h-3v-2
q-1 -1 -2.5 -1h-1.5q-1 -1 -1 -2v-1q-1 -1 -1.5 -1t-0.5 -1q-1 3 -1 37q0 75 -1 86h-47l-3 -3v-93q0 -42 1 -46v-5h-1v-24q2 -6 2 -24.5t-2 -24.5v-20h1v-1h-1q0 -1 0.5 -3t1 -3.5t-0.5 -3.5q0 -1 -0.5 -1h-0.5h1v-2h-1v-18h1v-5t-1 -5q0 -26 -1 -30q1 0 2.5 -0.5l1.5 -0.5
v-2h44v5q1 0 1.5 0.5t1.5 0.5q1 3 0 12t1 11v1q2 -1 4.5 -4t5.5 -3q1 -5 6 -7v-2h3q0 -1 1 -2v-1h5v0l2 -1l0.5 -1t0.5 -2q1 0 3.5 -1t4.5 -1v-2q3 0 9 -1v-2q5 -1 11 -1v-2q4 0 14 -3h26h13v1h8v1h3v1h6l1 1v1q2 0 5.5 0.5t5.5 0.5v3h4v2q3 0 6.5 1.5t4.5 1.5v2q2 1 3 3
q2 0 3.5 0.5t2.5 1t2 0.5v2h3v3q5 1 6 6q2 0 3 0.5l3 1.5v3t1 3q7 1 8 9h2v3h2q0 1 0.5 3t0.5 3q1 1 2 1h1v4h1v2q0 1 1 1h1q0 1 0.5 3t0.5 3h1q1 1 1 4.5t1 4.5v2h1v-26h2q1 -6 1 -11h2q1 -1 2 -4t1 -6q1 0 2 -0.5l1 -0.5v-3h4v-3h2q0 -3 1 -4l2 -2q2 0 5 -1q0 -2 1 -5
q2 0 4 -1l4 -2v-2q2 0 4.5 -1.5t5.5 -1.5q1 -1 1 -3q2 0 6 -0.5t5 -0.5v-2h8v-1h2v-1h7v-1h10v-1h16v1h19v1h7v1h2v1h6q1 1 1 2q2 0 6 0.5t5 0.5v2q6 1 9 1v2l2 0.5t3 0.5v1h1v3q3 1 7 2.5t6 1.5v3h4q1 3 3 4v2h2t1 1v4q3 0 8 4q1 -7 1 -26h2v-4h2v-2q3 0 4 1v1
q6 0 17.5 -0.5t17.5 -0.5v2h3q-1 11 -1 102v41q-2 7 -2 11v11q-1 0 -3 1q0 3 -1 6h3q0 -3 2 -7h2v-3h2q0 -3 1 -5.5t2 -4.5q0 -1 1 -1h2q0 -4 2 -7h1v-3h0.5t1.5 -1q0 -3 1 -5h1q4 -7 4 -9h2v-3h3q1 -5 1 -9l1 -0.5l1 -0.5v-2h1v-2h1q1 -3 2 -7h1t1 -1v-3h1t1 -1q1 -1 1 -2
l2 -1l2 -6q1 0 2 -1h1v-6h1v-1h3l2 -10h2q0 -3 1 -6h2q0 -3 2 -6h1v-5h2q1 -3 3 -7l1 -0.5l1 -0.5v-2h1q1 -3 1 -6h1q1 -2 3 -3q1 -3 2 -8h2v-5h2q1 -4 5 -10t5 -10h2q-1 -5 -6 -12.5t-6 -12.5h-2q0 -6 -3 -10l-1 -0.5t-2 -1.5v-3h-1v-2h-1v-2l-1 -0.5l-1 -0.5v-4l-1 -0.5
l-1 -0.5q0 -1 -1 -3h-1v-3q-1 0 -2 -1l-1 -1q-1 -3 -1 -6l-1 -0.5l-1 -0.5l-2 -6h-1v-2h-1v-3h-1t-1 -1v-2h-1t-1 -1v-4h-1v-1q2 -1 18 -1q25 0 37 1q0 4 3.5 9t3.5 10h2q1 3 5 9.5t4 10.5h2q1 3 1 6h2q1 4 2 6h1v5h1.5t1.5 1l2 6h0.5t1.5 1v2h1v2h1v3l0.5 0.5t1.5 0.5
q1 3 2 8h2q0 3 1 5l0.5 0.5t1.5 0.5q0 3 1 5l1 0.5l1 0.5v3q0 1 1 1h1q1 3 1 5h1t1 1v3h1v2l1 0.5l1 0.5v3l1 0.5l1 0.5v2h1q1 3 1 5l1 0.5l1 0.5v2h1v2h1v3l1 0.5l1 0.5q1 5 2 9h2l2.5 5t2.5 6h2q0 4 4 11t5 11h2q0 4 2 6h1q1 3 1 5l1 0.5l1 0.5v3h1q1 3 1 5q3 5 3 7h2
q1 5 4 6q0 6 1 7l1 0.5l1 0.5q1 3 1 5l1 0.5l1 0.5v2h1v2h1v2h1v2q1 0 1.5 0.5t1.5 0.5v5l1 0.5t2 1.5v5h1v2h2v3h2q0 3 1 6h2q0 3 2 6t2 5h2q0 3 1 6h2q0 4 2 6h1v5q1 0 2 0.5t1 1.5q1 2 1 5h1v2q1 0 2 1q1 2 1 5h1q3 5 3 8q-2 1 -17 1zM481 394h-2v-12h-1v-2l-1 -0.5
l-1 -0.5v-8h-2q-1 -3 -3.5 -7t-2.5 -8h-2q-1 -2 -2.5 -4t-1.5 -5h-3v-3q-3 0 -3 -3h-3v-2q-2 0 -3 -1t-3 -1l-0.5 -1.5l-0.5 -1.5q-1 0 -2.5 -0.5t-2.5 -0.5v-3q-3 0 -6 -1.5t-6 -1.5v-2q-2 0 -5.5 -0.5t-5.5 -0.5v-1h-2v-1h-18h-10v1h-2v1h-8v1h-2v1q-2 0 -5 1t-4 1v2
q-1 0 -3 0.5t-3 0.5v2h-3v2q-1 0 -3.5 2t-4.5 2q-1 3 -3 3q-1 4 -2 5l-1.5 0.5l-1.5 0.5v2l-2 2t-2 1v3h-1q-2 3 -2 7h-2l-0.5 1t-0.5 2h-1q0 1 -0.5 2.5t-0.5 2.5h-1v6h-1v2h-1v3h-1v1h1q0 1 -0.5 0.5t-0.5 0.5v5h-1v4h-1v13v9.5t1 9.5h1v3.5t1 3.5h1v2h1v5.5t1 5.5h2
l0.5 2.5t0.5 3.5h2l0.5 2t0.5 3h2q0 2 1.5 3t1.5 4h2v2q3 1 5.5 5t6.5 4v2l2 1q3 1 3 3q5 2 10 3v2q7 1 12 2v2h5v1h2v1q1 -1 3 -1h3q20 -1 22 -1v2h3v-2q2 -1 5.5 -2.5t7.5 -1.5v-2q3 0 6 -1t5 -2v-3q1 0 3 -0.5l2 -0.5v-2q2 -3 9 -4v-2t1 -2h3v-3q1 0 3.5 -0.5t3.5 -0.5
v-1h-3v-4l1 -0.5t2 -0.5q0 -1 0.5 -3t0.5 -3t1 -1h1v-2h1q0 -1 0.5 -3t0.5 -3h1v-2h1v-5h1v-3h1v-3h1v-12h2v-22zM712 366h-2q0 -3 -1 -6h-2q0 -4 -1 -7h-2q0 -4 -3.5 -8.5t-7.5 -5.5v-3q-3 0 -4 -1v-1h-2v-1h-3v-1q-3 -2 -6 -2v-2q-1 0 -3.5 -0.5t-3.5 -0.5q0 -2 -1 -2v-1
h-7v-1h-2v-1h-6q-17 -5 -31 -1h-9v1h-6q-1 1 -1 2h-7v3q-1 0 -2.5 0.5t-2.5 0.5v2h-3q-1 2 -3 3q-1 2 -3 3q-1 2 -2 3.5t-2 3.5l-1 0.5t-2 0.5v14h-2v6h2q0 8 1 14h2q2 3 6 7h3v2h3v3q5 0 6 3h8l1 2h2v1h7v1h5v1h5v1h19q7 3 36 3h20h3t3 1v-1h3v-2h1.5t0.5 -1q0 -16 -3 -33z
M528 384v-10h2q0 2 0.5 5t0.5 5h-3z" />
    <glyph glyph-name="brand4" unicode="&#xe64e;" 
d="M504.5 880q-102.5 0 -196 -40t-161 -107.5t-107 -161t-39.5 -196t39.5 -195.5t107 -160.5t161 -107.5t196 -40t195.5 40t160.5 107.5t107.5 160.5t40 195.5t-40 196t-107.5 161t-160.5 107.5t-195.5 40zM504.5 -64q-89.5 0 -171 34.5t-140.5 93.5t-94 140.5t-35 171
t35 171t94 140.5t140.5 94t171 35t171 -35t140.5 -94t94 -140.5t35 -171t-35 -171t-94 -140.5t-140.5 -93.5t-171 -34.5zM737 124h-81l-89 148q-26 45 -48 61t-53 16h-49v-225h-69v533h162q78 0 122 -37.5t44 -104.5q0 -111 -118 -144v-2q22 -9 38 -26.5t41 -58.5zM417 597
v-188h81q47 0 76.5 27.5t29.5 72.5q0 41 -27 64.5t-78 23.5h-82z" />
    <glyph glyph-name="ups" unicode="&#xe614;" 
d="M81 739q0 13 9 22t22 9h790v0q13 0 22 -9t9 -22v-702q0 -13 -9.5 -22t-22.5 -9h-781h-8q-13 0 -22 9t-9 22v702v0v0zM19 739v-702q0 -39 27 -66t66 -27h8h782q38 0 65.5 27t27.5 66v702q0 39 -27 66t-66 27v0h-790q-39 0 -66 -27.5t-27 -65.5v0v0zM193 543q0 13 9 21.5
t22 8.5h565q13 0 22 -8.5t9 -21.5v-278q0 -13 -9 -22t-22 -9h-565q-13 0 -22 9t-9 22v278v0v0zM131 543v-278q0 -39 27.5 -66t65.5 -27h566q39 0 66 27t27 66v278q0 38 -27 65.5t-66 27.5h-566q-39 0 -66 -27.5t-27 -65.5v0v0zM408 627l-265 -263q-9 -9 -9 -22t9 -22t22 -9
t22 9l264 264q9 9 9 21.5t-9 21.5t-21.5 9t-21.5 -9v0v0zM811 503l-265 -264q-9 -9 -9 -22t9 -22t22 -9t22 9l263 264q9 9 9 22t-9 22q-8 9 -20.5 9t-21.5 -9v0v0zM671 612l-372 -372q-9 -9 -9 -22t9 -22t21.5 -9t21.5 9l372 372q9 9 9 22t-9 22t-21.5 9t-21.5 -9v0v0z
M671 612z" />
    <glyph glyph-name="diskhdd" unicode="&#xe615;" horiz-adv-x="1170" 
d="M5 128q-2 10 -2 63v63q1 12 0 33t0 38t6 32q36 68 105 192.5t84 153.5q14 30 38.5 51t56.5 22h329q31 3 59 -8.5t44 -35.5q30 -55 85.5 -156t69.5 -127q6 -12 19 -34t22 -40t13 -36q1 -16 1 -92.5v-92.5q4 -28 -14 -51.5t-47 -24.5q-72 -1 -391.5 -0.5t-391.5 -0.5
q-30 -3 -55.5 10.5t-30.5 40.5zM869 142v189h-800v-189h800zM716 238.5q0 21.5 15.5 37t37 15.5t37 -15.5t15.5 -37t-15.5 -37t-37 -15.5t-37 15.5t-15.5 37z" />
    <glyph glyph-name="riguang" unicode="&#xe62d;" 
d="M212 446h598q7 0 7 -7v-113q0 -7 -7 -7h-598q-7 0 -7 7v113q0 7 7 7v0zM191 119v0q-9 9 -9 21.5t9 21.5l57 57q9 9 22 9t22 -9v0q9 -9 9 -21.5t-9 -21.5l-57 -57q-9 -9 -21.5 -9t-22.5 9v0zM732 549v0q-9 9 -9 21.5t9 21.5l57 57q9 9 21.5 9t22.5 -9v0q9 -9 9 -21.5
t-9 -22.5l-57 -56q-9 -9 -22 -9t-22 9v0zM191 649v0q9 9 22 9t22 -9l57 -57q9 -9 9 -21.5t-9 -21.5v0q-9 -9 -22 -9t-22 9l-57 56q-9 10 -9 22.5t9 21.5v0zM731 219v0q9 9 22 9t22 -9l57 -57q9 -9 9 -21.5t-9 -21.5v0q-9 -9 -22 -9t-22 9l-57 57q-9 9 -9 21.5t9 21.5v0z
M511 682v0q13 0 22 -9t9 -22v-80q0 -13 -9 -22t-22 -9v0q-13 0 -22 9t-9 22v80q0 13 9 22t22 9v0zM511 228v0q13 0 22 -9t9 -22v-80q0 -13 -9 -22t-22 -9v0q-13 0 -22 9t-9 22v80q0 13 9 22t22 9v0zM184 446h-44q-7 0 -7 -7v-11h-5v-36h5v-19h-5v-36h5v-11q0 -7 7 -7h44
q7 0 7 7v113q0 7 -7 7v0zM840 446h44q7 0 7 -7v-11h5v-36h-5v-19h5v-36h-5v-11q0 -7 -7 -7h-44q-7 0 -7 7v113q0 7 7 7z" />
    <glyph glyph-name="sd" unicode="&#xe616;" 
d="M768 555h-85v170h85v-170zM640 555h-85v170h85v-170zM512 555h-85v170h85v-170zM768 811h-341l-256 -256v-512q0 -36 25 -61t60 -25h512q35 0 60 25t25 61v682q0 36 -25 61t-60 25z" />
    <glyph glyph-name="usb" unicode="&#xe617;" 
d="M549 607q-13 13 -31.5 13t-31.5 -13l-314 -313q-26 -26 -7.5 -81t70.5 -107t107 -70.5t82 7.5l314 314q13 13 13 31t-13 31l-189 188v0zM691 372q-7 -6 -16 -6t-16 6l-141 141l-236 -235q-7 -6 -16 -6t-15.5 6.5t-6.5 15.5t7 16l251 250q7 7 16 7t16 -7l157 -156
q6 -7 6 -16t-6 -16v0zM854 601l-126 125q-13 13 -31.5 13t-31.5 -13l-63 -62q-13 -13 -13 -31.5t13 -31.5l126 -125q13 -13 31.5 -13t31.5 13l63 63q13 12 13 30.5t-13 31.5v0zM669 608q-9 0 -15.5 6.5t-6.5 16t6.5 16t15.5 6.5t15.5 -6.5t6.5 -16t-6.5 -16t-15.5 -6.5v0z
M758 520q-9 0 -15.5 6.5t-6.5 15.5t6.5 15.5t15.5 6.5t15.5 -6.5t6.5 -15.5t-6.5 -15.5t-15.5 -6.5v0zM758 520z" />
    <glyph glyph-name="shexiangtou" unicode="&#xe618;" 
d="M752 30h-173v47q131 24 218 128t87 240q0 113 -62 206t-163 137v0q-71 31 -149 31t-149 -31v0q-101 -44 -163 -137t-62 -206q0 -136 86.5 -239.5t218.5 -128.5v-48h-173q-10 0 -17 -3.5t-10 -8.5t-5 -10t-3 -9v-3v-69h554v69q0 14 -10.5 24.5t-24.5 10.5v0zM635 760
q-53 -50 -125 -50t-125 50q61 24 125 24t125 -24zM326 445q0 76 54 129.5t130 53.5t130 -53.5t54 -129.5t-54 -130t-130 -54t-130 54t-54 130zM607 445q0 40 -28.5 68.5t-68.5 28.5q-27 0 -50 -14q7 2 14 2q20 0 34.5 -14.5t14.5 -35t-14.5 -35t-34.5 -14.5t-34.5 14.5
t-14.5 35.5q0 6 2 14q-14 -24 -14 -50q0 -41 28.5 -69.5t68.5 -28.5t68.5 28.5t28.5 69.5v0z" />
    <glyph glyph-name="guangpan01" unicode="&#xe619;" 
d="M512 330q22 0 38 16t16 38t-16 38t-38 16t-38 -16t-16 -38t16 -38t38 -16zM512 409q10 0 17.5 -7.5t7.5 -17.5t-7.5 -17.5t-17.5 -7.5t-17.5 7.5t-7.5 17.5t7.5 17.5t17.5 7.5zM512 -64q91 0 174 35.5t143 95.5t95.5 143t35.5 174t-35.5 174t-95.5 143t-143 95.5
t-174 35.5t-174 -35.5t-143 -95.5t-95.5 -143t-35.5 -174t35.5 -174t95.5 -143t143 -95.5t174 -35.5zM512 803q114 0 210.5 -56.5t152.5 -152.5t56 -210t-56 -210.5t-152.5 -152.5t-210.5 -56t-210.5 56t-152.5 152.5t-56 210.5t56 210t152.5 152.5t210.5 56.5zM512 212
q71 0 121.5 50.5t50.5 121.5t-50.5 121.5t-121.5 50.5t-121.5 -50.5t-50.5 -121.5t50.5 -121.5t121.5 -50.5zM512 527q59 0 101 -42t42 -101t-42 -101t-101 -42t-101 42t-42 101t42 101t101 42zM680 534q-9 11 2 21l113 98q11 9 20.5 -2t-1.5 -20l-113 -98q-4 -4 -9 -4
q-7 0 -12 5zM244 81q-11 10 -1 21l98 113q9 11 20 1t2 -21l-98 -113q-5 -5 -11 -5t-10 4z" />
    <glyph glyph-name="sale2" unicode="&#xe622;" 
d="M745 238q-22 0 -37 -14.5t-17 -39.5h105q-2 24 -12 36q-15 18 -39 18zM425 148q-8 -3 -12.5 -10t-4.5 -15q0 -13 9.5 -21.5t28 -8.5t33 8t21.5 22q5 11 5 32v12q-18 -7 -52 -12q-20 -3 -28 -7zM941 457h-858q-9 0 -15 -6t-6 -15v-448q0 -8 6 -14.5t15 -6.5h858
q9 0 15 6.5t6 14.5v448q0 9 -6 15t-15 6zM337.5 97.5q-9.5 -14.5 -27 -22t-39.5 -7.5q-37 0 -56 15q-16 13 -23 36q-2 9 7 11l15 2q7 1 9 -6q4 -14 14 -22q12 -10 34 -10t32.5 9t10.5 21q0 11 -10 17q-6 4 -32 11q-35 9 -48.5 15.5t-20.5 17.5t-7 26q0 12 5 23q6 10 16 18
q7 5 20 9t28 4q22 0 39 -6.5t24 -17.5q6 -8 9 -20q3 -9 -7 -10l-14 -2q-7 -1 -9 6q-3 9 -11 15q-10 9 -29 9q-22 0 -31.5 -7.5t-9.5 -17.5q0 -6 4 -11t12 -8q4 -2 29 -9q34 -9 47 -14q13 -6 20.5 -17t7.5 -27q1 -16 -8.5 -30.5zM511 78q0 2 -1 5q-1 4 -5.5 5.5t-7.5 -1.5
q-12 -8 -24 -13q-17 -6 -35 -6q-31 0 -47.5 15t-16.5 39q0 14 6 25.5t16.5 18t22.5 10.5q10 2 29 5q32 4 51 9q6 2 6 8v2q0 20 -9 28q-13 10 -37 10q-22 0 -33 -7q-9 -7 -14 -22q-2 -6 -9 -5l-14 2q-4 0 -6 3.5t-1 7.5q4 13 11 22q10 12 28.5 19t42.5 7t39 -6t22 -14.5
t10 -21.5q2 -9 2 -29v-43q0 -44 2 -56q1 -5 3 -11q1 -4 -1.5 -8t-6.5 -4h-15q-6 0 -8 6zM609 72h-15q-8 0 -8 9v242q0 9 8 9h15q8 0 8 -9v-242q0 -9 -8 -9zM821 158h-122q-4 0 -6.5 -3t-2.5 -6q4 -25 17 -38q16 -17 39 -17q18 0 30 10q11 7 17 23q3 6 9 5l16 -2q5 0 7 -4
t0 -7q-8 -22 -25 -35q-21 -16 -54 -16q-41 0 -65.5 25.5t-24.5 71.5q0 47 24.5 73.5t63.5 26.5q38 0 62 -26t24 -72v0q0 -9 -9 -9zM510 796l4 -3q-2 1 -4 3zM512 794v1v-1zM530 793l-3 3q-6 5 -14 5t-14 -6l-1 -1l-310 -309v0h61l265 265l264 -265h58z" />
    <glyph glyph-name="diannao2" unicode="&#xe61a;" 
d="M853 128q35 0 60 25t25 60l1 427q0 35 -25 60t-61 25h-682q-36 0 -61 -25t-25 -60v-427q0 -35 25 -60t61 -25h-171v-85h1024v85h-171zM171 640h682v-427h-682v427z" />
    <glyph glyph-name="1f" unicode="&#xe61b;" 
d="M718 393q3 84 -42 78h-11v-160h12q41 0 41 82zM877 218v311q0 47 -33.5 80t-80.5 33h-502q-47 0 -80.5 -33t-33.5 -80v-311q0 -47 33.5 -80.5t80.5 -33.5h502q47 0 80.5 33.5t33.5 80.5zM685 541q90 -2 91 -143q0 -156 -93 -156h-75v299h77zM251 334h55q3 -16 9 -24
q7 -7 16 -7q25 0 25 22q0 17 -33 30q-67 28 -67 98q1 92 74 96q67 -2 75 -94h-54q-1 14 -8 19q-5 6 -14 6q-19 0 -19 -17t34 -31q66 -28 66 -94q-2 -100 -81 -101q-70 5 -78 97zM425 334h55q3 -16 10 -24q6 -7 16 -7q24 0 24 22q0 17 -33 30q-67 28 -67 98q2 92 75 96
q66 -2 75 -94h-54q-1 14 -9 19q-5 6 -14 6q-19 0 -19 -17t34 -31q67 -28 67 -94q-2 -100 -82 -101q-69 5 -78 97z" />
    <glyph glyph-name="2f" unicode="&#xe61c;" 
d="M290 587h-77v-74h-78v-367h754v279v88v74h-77v-74h-23v74h-76v-74h-24v74h-76v-74h-24v74h-76v-74h-24v74h-76v-74h-24v74h-76v-74h-23v74z" />
    <glyph glyph-name="iconzhekou" unicode="&#xe623;" 
d="M1000 392l-89 72q-8 6 -11 17.5t0 21.5l41 107q4 10 -0.5 18t-14.5 9l-113 18q-11 2 -19.5 10.5t-9.5 18.5l-18 113q-3 18 -19 18q-4 0 -9 -2l-106 -41q-6 -2 -12 -2q-18 0 -28 13l-72 88q-6 9 -15.5 9t-15.5 -9l-72 -88q-11 -13 -29 -13q-6 0 -11 2l-107 41q-4 2 -8 2
q-16 0 -19 -18l-18 -113q-2 -10 -10.5 -18.5t-18.5 -10.5l-113 -18q-10 -1 -14.5 -9t-1.5 -18l41 -107q4 -10 1 -21.5t-11 -17.5l-89 -72q-8 -7 -8 -16t8 -16l89 -72q8 -6 11 -18t-1 -21l-41 -107q-3 -10 1.5 -18t14.5 -10l113 -18q10 -1 18.5 -9.5t10.5 -18.5l18 -113
q3 -18 19 -18q4 0 8 2l107 41q5 2 11 2q18 0 29 -13l72 -89q6 -8 15.5 -8t15.5 8l72 89q10 13 28 13q6 0 12 -2l106 -41q5 -2 9 -2q16 0 19 18l18 113q1 10 9.5 18.5t19.5 9.5l113 18q10 2 14.5 10t0.5 18l-41 107q-3 9 0 20.5t11 18.5l89 72q8 7 8 16t-8 16zM866 343
q-26 -21 -35 -55t3 -65l19 -48l-52 -8q-33 -5 -57.5 -30t-29.5 -58l-9 -51l-48 18q-17 7 -37 7q-52 0 -83 -39l-33 -40l-32 40q-32 39 -84 39q-19 0 -36 -7l-49 -18l-8 51q-5 33 -30 58t-58 30l-51 8l19 48q12 31 2.5 65t-35.5 55l-40 33l40 32q26 21 35.5 55t-2.5 66
l-19 48l51 8q33 5 58 30t30 58l8 51l49 -18q17 -7 36 -7q52 0 84 39l32 40l33 -40q31 -39 83 -39q20 0 37 7l48 18l9 -51q5 -33 29.5 -58t57.5 -30l52 -8l-19 -48q-12 -32 -3 -66t35 -55l40 -32zM666.5 543q-9.5 9 -22.5 9t-22 -9l-277 -276q-9 -10 -9 -23t9.5 -22t22.5 -9
t22 9l276 276q10 10 10 23t-9.5 22zM416.5 392q33.5 0 57 23.5t23.5 56.5t-23.5 56.5t-57 23.5t-57 -23.5t-23.5 -56.5t23.5 -56.5t57 -23.5zM416.5 508q14.5 0 25 -10.5t10.5 -25.5t-10.5 -25.5t-25 -10.5t-25 10.5t-10.5 25.5t10.5 25.5t25 10.5zM595.5 373
q-33.5 0 -57 -23.5t-23.5 -56.5t23.5 -56.5t57 -23.5t57 23.5t23.5 56.5t-23.5 56.5t-57 23.5zM595 257q-15 0 -25.5 10.5t-10.5 25.5t10.5 25.5t25.5 10.5t25.5 -10.5t10.5 -25.5t-10.5 -25.5t-25.5 -10.5z" />
    <glyph glyph-name="noble06" unicode="&#xe62e;" 
d="M686 625l-14 11l25 31l14 -11zM757 567l25 31l14 -11l-25 -31zM742 814l-154 -190l-6 5q-12 10 -29 8t-27 -14l-63 -78l-100 82q-13 10 -29.5 8.5t-27.5 -14.5l-188 -232q-10 -13 -8.5 -29.5t14.5 -26.5l101 -82l-38 -46q-24 -30 -20 -67.5t33 -61.5l120 -98
q25 -20 58 -20q44 0 71 34l340 418q10 13 8.5 29.5t-14.5 26.5l-6 5l154 189zM136 347q-7 6 -8 15t5 16l188 231q5 7 14 8t16 -4l101 -82l-216 -265zM774 422l-339 -419q-22 -27 -57 -27q-26 0 -46 17l-120 97q-24 19 -27 49.5t16 53.5l339 419q7 8 17 8q8 0 14 -5l200 -163
q7 -6 8 -14.5t-5 -15.5zM602 613l142 175l161 -130l-142 -176zM190 372l-14 12l148 181l14 -11z" />
    <glyph glyph-name="cpu64" unicode="&#xe61d;" 
d="M992 480q13 0 22.5 9.5t9.5 22.5t-9.5 22.5t-22.5 9.5h-192v64h192q13 0 22.5 9.5t9.5 22.5t-9.5 22.5t-22.5 9.5h-192v192q0 13 -9.5 22.5t-22.5 9.5t-22.5 -9.5t-9.5 -22.5v-192h-64v192q0 13 -9.5 22.5t-22.5 9.5t-22.5 -9.5t-9.5 -22.5v-192h-64v192q0 13 -9.5 22.5
t-22.5 9.5t-22.5 -9.5t-9.5 -22.5v-192h-64v192q0 13 -9.5 22.5t-22.5 9.5t-22.5 -9.5t-9.5 -22.5v-192h-64v192q0 13 -9.5 22.5t-22.5 9.5t-22.5 -9.5t-9.5 -22.5v-192h-192q-13 0 -22.5 -9.5t-9.5 -22.5t9.5 -22.5t22.5 -9.5h192v-64h-192q-13 0 -22.5 -9.5t-9.5 -22.5
t9.5 -22.5t22.5 -9.5h192v-64h-192q-13 0 -22.5 -9.5t-9.5 -22.5t9.5 -22.5t22.5 -9.5h192v-64h-192q-13 0 -22.5 -9.5t-9.5 -22.5t9.5 -22.5t22.5 -9.5h192v-64h-192q-13 0 -22.5 -9.5t-9.5 -22.5t9.5 -22.5t22.5 -9.5h192v-192q0 -13 9.5 -22.5t22.5 -9.5t22.5 9.5
t9.5 22.5v192h64v-192q0 -13 9.5 -22.5t22.5 -9.5t22.5 9.5t9.5 22.5v192h64v-192q0 -13 9.5 -22.5t22.5 -9.5t22.5 9.5t9.5 22.5v192h64v-192q0 -13 9.5 -22.5t22.5 -9.5t22.5 9.5t9.5 22.5v192h64v-192q0 -13 9.5 -22.5t22.5 -9.5t22.5 9.5t9.5 22.5v192h192
q13 0 22.5 9.5t9.5 22.5t-9.5 22.5t-22.5 9.5h-192v64h192q13 0 22.5 9.5t9.5 22.5t-9.5 22.5t-22.5 9.5h-192v64h192q13 0 22.5 9.5t9.5 22.5t-9.5 22.5t-22.5 9.5h-192v64h192zM736 608v-64h-64v64h64zM608 608v-64h-64v64h64zM480 352v-64h-64v64h64zM416 416v64h64v-64
h-64zM544 352h64v-64h-64v64zM544 416v64h64v-64h-64zM480 608v-64h-64v64h64zM288 608h64v-64h-64v64zM288 480h64v-64h-64v64zM288 352h64v-64h-64v64zM288 160v64h64v-64h-64zM416 160v64h64v-64h-64zM544 160v64h64v-64h-64zM736 160h-64v64h64v-64zM736 288h-64v64h64
v-64zM736 416h-64v64h64v-64zM800 736h-576q-27 0 -45.5 -18.5t-18.5 -45.5v-576q0 -27 18.5 -45.5t45.5 -18.5h576q27 0 45.5 18.5t18.5 45.5v576q0 27 -18.5 45.5t-45.5 18.5zM768 672h-512q-13 0 -22.5 -9.5t-9.5 -22.5v-512q0 -13 9.5 -22.5t22.5 -9.5h512
q13 0 22.5 9.5t9.5 22.5v512q0 13 -9.5 22.5t-22.5 9.5zM736 384v128q0 12 -8 21t-20 11q-18 3 -30 -12l-126 -156q-8 -9 -8 -21v-1.5v-1.5q0 -12 8.5 -21.5t20.5 -10.5v0h1.5h1.5h96v-32q0 -13 9.5 -22.5t22.5 -9.5t22.5 9.5t9.5 22.5v32q13 0 22.5 9.5t9.5 22.5t-9.5 22.5
t-22.5 9.5zM672 384h-28l28 35v-35zM384 448q-6 0 -14 -1q8 14 36 42v0q10 10 10 23q0 14 -9.5 23.5t-22.5 9.5q-10 0 -19 -7q-2 -1 -3 -2q-17 -17 -27.5 -30t-22.5 -35t-18.5 -51.5t-6.5 -67.5q0 -40 28.5 -68t68.5 -28t68 28t28 68t-28 68t-68 28zM384 320
q-13 0 -22.5 9.5t-9.5 22.5t9.5 22.5t22.5 9.5t22.5 -9.5t9.5 -22.5t-9.5 -22.5t-22.5 -9.5z" />
    <glyph glyph-name="R" unicode="&#xe9da;" 
d="M690 -46q20 -20 50 -20q44 0 49 35q0 24 -20 49l-286 317h49q237 9 242 257q-20 217 -272 242h-207q-65 0 -60 -59v-792q0 -49 55 -49q49 0 54 49v347l346 -376v0zM497 740q154 -10 168 -153q5 -173 -168 -168h-153v321h153z" />
    <glyph glyph-name="pay" unicode="&#xe6d6;" 
d="M281 -69q36 38 40 42l77 77t89.5 90t76.5 77q37 38 45 65q5 13 1.5 31.5t-12.5 28.5t-27 14.5t-33 2.5q-24 -4 -56 -34q-19 -18 -120 -119q-24 -23 -29 -28q-25 -24 -40 -5q-3 5 -0.5 17.5t7.5 16.5q45 32 57.5 76t5.5 104q-1 11 1.5 33t-0.5 38.5t-16 30.5
q-67 -59 -74 -65q-16 -16 -50 -52.5t-52 -54.5q-43 -40 -42 -102q1 -78 -2 -236q0 -3 0.5 -11.5t0 -13.5t-2 -11.5t-6 -10t-11.5 -3.5q-10 0 -15.5 2.5t-7.5 9t-2.5 12t0.5 15t1 12.5q0 44 0.5 132t0.5 131q-1 54 40 96q31 31 96 100t100 104q47 47 42 108q-2 32 1 74
q3 53 31 81.5t79 29.5q90 1 180 1q92 0 184 -1q51 -1 79 -30.5t29 -81.5q2 -320 0 -627q0 -52 -30.5 -84t-82.5 -33q-169 -1 -390 6q-42 2 -72 -27q-10 -11 -13.5 -14t-14 -10.5t-17.5 -9t-19.5 -1t-26.5 6.5zM753 404v155v155q0 51 -11.5 63.5t-59.5 13.5q-98 2 -182 0
q-52 -2 -70 -20t-18 -70q-2 -180 0 -269q0 -12 2 -24.5t5.5 -28t5.5 -23.5q55 32 62 35q33 20 73 19t66 -24q27 -22 34.5 -57.5t-8.5 -71.5q-12 -29 -42 -60q-19 -20 -58.5 -59.5t-59.5 -60.5q-4 -4 -7 -11t-6 -16t-5 -13q4 -1 12 -4t14 -4.5t12 -2.5q97 -1 175 0
q43 1 54 12.5t12 55.5v310zM801 409v0v-81v-248q1 -46 33 -51q41 -6 58 37q7 18 8 59v571q-1 35 -6 53q-12 40 -57 37q-35 -3 -36 -48v-34v-295z" />
    <glyph glyph-name="cable" unicode="&#xe667;" 
d="M259 871h191v-160h-191v160zM320 704h130v-77h-130v77zM689 880h164v-245h-164v245zM335 608l9 -84h69l8 84h-86zM727 616l10 -84h69l8 84h-87zM803 196l-54 97l-118 66l-112 4l-75 -39l-4 -116l107 73l98 -8l82 -141l-60 -127l-155 -12l-91 122l11 437l-88 -28l1 -223
v-196l33 -112l111 -80l106 -18l64 21l81 49l68 122zM808 223l-81 80v229h81v-309zM661 896v-256l43 -43v-247q-59 34 -128 34t-128 -34v247h21v278q0 9 -6 15t-15 6h-192q-9 0 -15 -6t-6 -15v-22h-64q-9 0 -15.5 -6t-6.5 -15t6.5 -15t15.5 -6h64v-43h-64q-9 0 -15.5 -6.5
t-6.5 -15t6.5 -15t15.5 -6.5h64v-21q0 -9 6 -15t15 -6h43v-86h21v-469q0 -106 75 -181t181 -75t181 75t75 181v469l43 43v256h-214zM277 853h150v-128h-150v128zM427 683v-43h-86v43h86zM405 597v0q-9 0 -15 -6t-6 -15t6 -15t15 -6h-42q9 0 15 6t6 15t-6 15t-15 6v0h42z
M726.5 -22.5q-62.5 -62.5 -150.5 -62.5t-150.5 62.5t-62.5 150.5v384h42v-384q0 -71 50 -121t121 -50t121 50t50 121t-50 121t-121 50q-77 0 -128 -58v58q57 42 128 42t128 -42v0q12 -9 23 -20q62 -63 62 -151t-62.5 -150.5zM448 128q0 53 37.5 90.5t90.5 37.5t90.5 -37.5
t37.5 -90.5t-37.5 -90.5t-90.5 -37.5t-90.5 37.5t-37.5 90.5zM747 319v193h42v-242q-18 27 -42 49zM789 555h-42q9 0 15 6t6 15t-6 15t-15 6h42q-9 0 -15 -6t-6 -15t6 -15t15 -6zM832 658l-18 -18h-25v149q0 9 -6 15.5t-15 6.5t-15 -6.5t-6 -15.5v-149h-25l-18 18v195
q0 -9 6.5 -15t15 -6t15 6t6.5 15h42q0 -9 6.5 -15t15 -6t15 6t6.5 15v-195z" />
    <glyph glyph-name="R1" unicode="&#xe668;" 
d="M704 215l52 -151v0h-126l-39 131q-16 45 -42.5 70t-73.5 25h-100v-226h-107v640h224q72 0 126.5 -22.5t84.5 -68t30 -112.5v0q0 -40 -16 -77q-18 -41 -41 -63q-29 -27 -59 -37q17 -8 39 -26q12 -10 28 -37q12 -22 20 -46zM592.5 412.5q33.5 26.5 33.5 88.5
q0 58 -33.5 82.5t-100.5 24.5h-117v-222h117q67 0 100.5 26.5z" />
    <glyph glyph-name="brand5" unicode="&#xe64a;" 
d="M481 432h-77v169h79q60 0 89.5 -19.5t29.5 -62.5q0 -41 -30 -64t-91 -23zM496 334h-92v-192h92q139 0 139 101q0 47 -34.5 69t-104.5 22zM958 718v-666q0 -47 -32.5 -80.5t-81.5 -33.5h-664q-48 0 -82.5 33t-34.5 80v667q0 45 35.5 80t81.5 35h659q47 0 83 -35.5
t36 -79.5zM764 235q0 64 -33.5 103.5t-90.5 52.5v5q41 14 65.5 55t24.5 88q0 163 -239 163h-220v-662h237q115 0 185.5 49.5t70.5 145.5z" />
    <glyph glyph-name="Rebate" unicode="&#xe624;" 
d="M128 632h64v-658h-42q-56 0 -103 39.5t-47 93.5v400q0 54 36.5 89.5t91.5 35.5zM496 189v93q-45 12 -64 38q-21 29 -21 61q0 36 23 61q24 24 60 28v23h32v-23q37 -5 56 -24q20 -17 28 -52l-56 -8q-3 27 -26 36v-86q55 -15 74 -38q19 -24 19 -60q0 -40 -24 -68.5
t-69 -33.5v-42h-32v40q-38 5 -62 29q-24 23 -31 69l58 6q2 -17 13 -30q12 -15 22 -19zM496 424q-13 -4 -21 -14q-8 -11 -8 -24q0 -14 7 -23q8 -11 22 -16v77zM528 186q16 2 27 16t11 28q0 16 -9 26q-9 11 -29 16v-86zM254 632v88q0 31 22 53t54 22h361q31 0 53 -22t22 -53
v-88h-44v54q0 27 -18.5 45.5t-44.5 18.5h-297q-26 0 -44.5 -18.5t-18.5 -45.5v-54h-45zM818 632h73q55 0 94 -39t39 -94v-392q0 -55 -39 -94t-94 -39h-75v658h2zM678 632h-348v-658h350v658h-2z" />
    <glyph glyph-name="rengongbaoxiu-" unicode="&#xe629;" 
d="M983 452l-17 41l-104 -104q-10 -10 -24 -10t-24.5 10.5t-10.5 24.5v0q0 14 11 24l89 90l15 14l-42 17q-36 15 -75 15v0q-82 0 -139 -58q-24 -24 -41 -64.5t-17 -74.5q0 -33 11 -65l-174 -174q-10 -10 -17.5 -28t-7.5 -32v-1q0 -35 25 -60q10 -11 28 -18t32 -7h1
q35 0 60 25l173 174q32 -11 66 -11q82 0 140 58q42 42 53.5 100.5t-11.5 113.5zM483 96l196 196l7 7l-9 19q-19 39 -11.5 82t38.5 74q40 41 97 41h5l-34 -35q-12 -11 -20 -30.5t-8 -35.5q0 -39 27.5 -66.5t66.5 -27.5t67 27l34 35q2 -60 -40 -102q-41 -41 -98 -41
q-31 0 -59 14l-19 9l-203 -203q-8 -8 -18 -8h-1q-10 0 -18 7.5t-8 18.5v0q0 11 8 19zM501 4v0v0zM494 418q38 29 60 72t22 91q0 84 -59 143.5t-143 59.5t-143.5 -59.5t-59.5 -143.5q0 -48 22 -91t61 -72q-102 -45 -165.5 -153t-63.5 -240v-33h310v67h-245q10 135 91.5 226.5
t192.5 91.5q65 0 124 -36l5 -2l39 53l-6 4q-21 12 -42 22zM511 581.5q0 -56.5 -40.5 -96.5t-97 -40t-96.5 40t-40 96.5t40 96.5t96.5 40t97 -40t40.5 -96.5z" />
  </font>
</defs>
</svg>
